<svg xmlns="http://www.w3.org/2000/svg" xmlns:xlink="http://www.w3.org/1999/xlink" width="536.754" height="611.321" viewBox="0 0 536.754 611.321">
  <defs>
    <clipPath id="clip-path">
      <rect id="Rectangle_5" data-name="Rectangle 5" width="536.754" height="611.321" fill="none" stroke="#4b4b4b" stroke-width="5"/>
    </clipPath>
  </defs>
  <g id="Group_27" data-name="Group 27" transform="translate(996 -227)">
    <path id="Path_79" data-name="Path 79" d="M418.485,317.6s-22.721,8.826-49.25,30.427S322.9,395.69,322.9,395.69a307.959,307.959,0,0,0-29.769,46.6c-13.269,25.98-23.306,57.315-23.306,57.315l72.3,58.225s31.792-18.373,59.164-44.054,41.974-47.472,41.974-47.472,18.7-26.849,29.38-50.8a177.908,177.908,0,0,0,13.335-45.015Z" transform="translate(-1064 -72)" fill="#d8d8d8" stroke="#707070" stroke-width="1"/>
    <g id="Group_1" data-name="Group 1" transform="translate(-996 227)" clip-path="url(#clip-path)">
      <path id="Path_1" data-name="Path 1" d="M3.325,336.686v9.39c0,5.3,5.006,9.591,11.182,9.591h502.21c6.178,0,11.182-4.291,11.182-9.591v-9.39Z" transform="translate(2.499 253.027)" fill="#fff" stroke="#4b4b4b" stroke-width="5"/>
      <path id="Path_2" data-name="Path 2" d="M3.325,336.686v9.39c0,5.3,5.006,9.591,11.182,9.591h502.21c6.178,0,11.182-4.291,11.182-9.591v-9.39Z" transform="translate(2.499 253.027)" fill="none" stroke="#4b4b4b" stroke-linecap="round" stroke-linejoin="round" stroke-width="5"/>
      <path id="Path_3" data-name="Path 3" d="M1.5,359.223H533l-69.553-61.03H84.072Z" transform="translate(1.127 224.098)" fill="#fff" stroke="#4b4b4b" stroke-width="5"/>
      <path id="Path_4" data-name="Path 4" d="M1.5,359.223H533l-69.553-61.03H84.072Z" transform="translate(1.127 224.098)" fill="none" stroke="#4b4b4b" stroke-linecap="round" stroke-linejoin="round" stroke-width="5"/>
      <path id="Path_5" data-name="Path 5" d="M457.508,329.064,429.27,304.287H67.113L33.589,329.064Z" transform="translate(25.243 228.678)" fill="#fff" stroke="#4b4b4b" stroke-width="5"/>
      <path id="Path_6" data-name="Path 6" d="M457.508,329.064,429.27,304.287H67.113L33.589,329.064Z" transform="translate(25.243 228.678)" fill="none" stroke="#4b4b4b" stroke-linecap="round" stroke-linejoin="round" stroke-width="5"/>
      <path id="Path_7" data-name="Path 7" d="M248.1,337.259l-8.714-14.8H127.594l-10.344,14.8Z" transform="translate(88.116 242.333)" fill="#fff" stroke="#4b4b4b" stroke-width="5"/>
      <path id="Path_8" data-name="Path 8" d="M248.1,337.259l-8.714-14.8H127.594l-10.344,14.8Z" transform="translate(88.116 242.333)" fill="none" stroke="#4b4b4b" stroke-linecap="round" stroke-linejoin="round" stroke-width="5"/>
      <path id="Path_9" data-name="Path 9" d="M46.207,400.177V164.662a9.594,9.594,0,0,1,9.595-9.588H424.518a9.591,9.591,0,0,1,9.595,9.588S46.207,405.471,46.207,400.177Z" transform="translate(34.726 116.541)" fill="#fff" stroke="#4b4b4b" stroke-width="5"/>
      <path id="Path_10" data-name="Path 10" d="M434.113,400.177a9.591,9.591,0,0,1-9.595,9.59H55.8a9.6,9.6,0,0,1-9.595-9.59V164.662a9.594,9.594,0,0,1,9.595-9.588H424.518a9.591,9.591,0,0,1,9.595,9.588Z" transform="translate(34.726 116.541)" fill="none" stroke="#4b4b4b" stroke-linecap="round" stroke-linejoin="round" stroke-width="5"/>
      <path id="Path_11" data-name="Path 11" d="M428.018,394.4a9.325,9.325,0,0,1-9.379,9.271H58.023a9.328,9.328,0,0,1-9.381-9.271V166.779a9.325,9.325,0,0,1,9.381-9.273H418.639a9.322,9.322,0,0,1,9.379,9.273Z" transform="translate(36.555 118.369)" fill="#fff" stroke="#4b4b4b" stroke-width="5"/>
      <path id="Path_81" data-name="Path 81" d="M0,0H335.681V201.414H0Z" transform="translate(105.449 296.119)" fill="#2d6b91" stroke="#4b4b4b" stroke-width="5"/>
      <rect id="Rectangle_2" data-name="Rectangle 2" width="335.681" height="201.414" transform="translate(105.449 296.119)" fill="none" stroke="#4b4b4b" stroke-linecap="round" stroke-linejoin="round" stroke-width="5"/>
      <path id="Path_13" data-name="Path 13" d="M166.423,165.74a5.2,5.2,0,1,1-5.2-5.19,5.2,5.2,0,0,1,5.2,5.19" transform="translate(117.259 120.657)" fill="#fff" stroke="#4b4b4b" stroke-width="5"/>
      <path id="Path_14" data-name="Path 14" d="M166.423,165.74a5.2,5.2,0,1,1-5.2-5.19A5.2,5.2,0,0,1,166.423,165.74Z" transform="translate(117.259 120.657)" fill="none" stroke="#4b4b4b" stroke-linecap="round" stroke-linejoin="round" stroke-width="5"/>
      <rect id="Rectangle_3" data-name="Rectangle 3" width="531.499" height="12.786" transform="translate(2.627 583.32)" fill="#fff" stroke="#4b4b4b" stroke-width="5"/>
      <rect id="Rectangle_4" data-name="Rectangle 4" width="531.499" height="12.786" transform="translate(2.627 583.32)" fill="none" stroke="#4b4b4b" stroke-linecap="round" stroke-linejoin="round" stroke-width="5"/>
      <path id="Path_15" data-name="Path 15" d="M410.569,353.373c-10.5-20.2-37.651-19.414-46.293-3.813-1.053-18.834-33.822-29.336-44.117-4.818,3.471-28.559-32.89-39.062-47.237-21.286-5.375-22.227-38.982-30.7-56.49-1.643,7-28.254-29.356-50.876-53.32-29.333-36.635-38.512.638-109.248,4.421-124.361-5.409-.758-8.528-5.015-11.933-8.871-9.781,8.108-39.57,65.482-44.478,77.482C99.809,264.4,87.355,256.054,87.355,256.054c-15.823-8.551-52.187,17.3-27.665,48.7-16.443-3.923-22.9,24.357-5.051,35.67-25.933,5.656-13.816,42.017,20.249,37.433H410.569Z" transform="translate(30.56 119.677)" fill="#fff" stroke="#4b4b4b" stroke-width="5"/>
      <path id="Path_16" data-name="Path 16" d="M410.569,353.373c-10.5-20.2-37.651-19.414-46.293-3.813-1.053-18.834-33.822-29.336-44.117-4.818,3.471-28.559-32.89-39.062-47.237-21.286-5.375-22.227-38.982-30.7-56.49-1.643,7-28.254-29.356-50.876-53.32-29.333-36.635-38.512.638-109.248,4.421-124.361-5.409-.758-8.528-5.015-11.933-8.871-9.781,8.108-39.57,65.482-44.478,77.482C99.809,264.4,87.355,256.054,87.355,256.054c-15.823-8.551-52.187,17.3-27.665,48.7-16.443-3.923-22.9,24.357-5.051,35.67-25.933,5.656-13.816,42.017,20.249,37.433H410.569Z" transform="translate(30.56 119.677)" fill="none" stroke="#4b4b4b" stroke-linecap="round" stroke-linejoin="round" stroke-width="5"/>
      <path id="Path_17" data-name="Path 17" d="M173.513,190.3c-24.192,30.576-77.648,42.907-77.648,42.907s-1.559-65.694,17.844-90.221,59.8-13.06,59.8-13.06,24.188,29.8,0,60.374" transform="translate(72.022 91.957)" fill="#fff" stroke="#4b4b4b" stroke-width="5"/>
      <path id="Path_18" data-name="Path 18" d="M173.513,190.3c-24.192,30.576-77.648,42.907-77.648,42.907s-1.559-65.694,17.844-90.221,59.8-13.344,59.8-13.344S197.7,159.727,173.513,190.3Z" transform="translate(72.022 91.957)" fill="none" stroke="#4b4b4b" stroke-linecap="round" stroke-linejoin="round" stroke-width="5"/>
      <path id="Path_19" data-name="Path 19" d="M161.372,173.2c-16.85,21.3-54.012,29.947-54.012,29.947s-1-45.692,12.518-62.776,45-14.247,45-14.247,13.343,25.777-3.508,47.076" transform="translate(80.671 94.654)" fill="#fff" stroke="#4b4b4b" stroke-width="5"/>
      <path id="Path_20" data-name="Path 20" d="M161.372,173.2c-16.85,21.3-54.012,29.947-54.012,29.947s-1-45.692,12.518-62.776,45-14.247,45-14.247S178.223,151.9,161.372,173.2Z" transform="translate(80.671 94.654)" fill="none" stroke="#4b4b4b" stroke-linecap="round" stroke-linejoin="round" stroke-width="5"/>
      <path id="Path_21" data-name="Path 21" d="M173.387,226.193c-16.6-13.131-15.354-58.6-15.354-58.6s67.194-61.612,73.846-56.346c21.3,16.848-51.842,120.209-58.492,114.947" transform="translate(118.749 83.364)" fill="#ff7979" stroke="#4b4b4b" stroke-width="5"/>
      <path id="Path_22" data-name="Path 22" d="M173.387,226.193c-16.6-13.131-15.354-58.6-15.354-58.6s67.194-61.612,73.846-56.346C253.177,128.094,180.037,231.455,173.387,226.193Z" transform="translate(118.749 83.364)" fill="none" stroke="#4b4b4b" stroke-linecap="round" stroke-linejoin="round" stroke-width="5"/>
      <path id="Path_23" data-name="Path 23" d="M231.706,114.193a226.379,226.379,0,0,1-26.422,51.44c-7.819,11.464-15.7,23.679-24.805,34.169-5.183,5.971-10.936,11.182-17.806,14.389a27.471,27.471,0,0,0,7.211,9.548c6.136,4.854,68.83-82.7,61.822-109.545" transform="translate(122.252 85.818)" fill="#fff" stroke="#4b4b4b" stroke-width="5"/>
      <path id="Path_24" data-name="Path 24" d="M231.706,114.193a226.379,226.379,0,0,1-26.422,51.44c-7.819,11.464-15.7,23.679-24.805,34.169-5.183,5.971-10.936,11.182-17.806,14.389a27.471,27.471,0,0,0,7.211,9.548C176.02,228.592,238.714,141.04,231.706,114.193Z" transform="translate(122.252 85.818)" fill="#ff7979" stroke="#4b4b4b" stroke-linecap="round" stroke-linejoin="round" stroke-width="5"/>
      <path id="Path_25" data-name="Path 25" d="M85.357,148.812c16.6,13.129,60.564,1.461,60.564,1.461s44.5-79.566,37.847-84.83c-21.3-16.848-105.062,78.106-98.411,83.369" transform="translate(63.866 47.679)" fill="#ff7979" stroke="#4b4b4b" stroke-width="5"/>
      <path id="Path_26" data-name="Path 26" d="M85.357,148.812c16.6,13.129,60.564,1.461,60.564,1.461s44.5-79.566,37.847-84.83C162.469,48.6,78.706,143.549,85.357,148.812Z" transform="translate(63.866 47.679)" fill="none" stroke="#4b4b4b" stroke-linecap="round" stroke-linejoin="round" stroke-width="5"/>
      <path id="Path_27" data-name="Path 27" d="M177.746,63.449a226.06,226.06,0,0,0-43.986,37.542c-9.357,10.248-19.431,20.731-27.546,32-4.619,6.416-8.363,13.212-9.9,20.636a27.476,27.476,0,0,1-10.954-4.82C79.223,143.956,150,62.8,177.746,63.449" transform="translate(63.866 47.68)" fill="#fff" stroke="#4b4b4b" stroke-width="5"/>
      <path id="Path_28" data-name="Path 28" d="M177.746,63.449a226.06,226.06,0,0,0-43.986,37.542c-9.357,10.248-19.431,20.731-27.546,32-4.619,6.416-8.363,13.212-9.9,20.636a27.476,27.476,0,0,1-10.954-4.82C79.223,143.956,150,62.8,177.746,63.449Z" transform="translate(63.866 47.68)" fill="#ff7979" stroke="#4b4b4b" stroke-linecap="round" stroke-linejoin="round" stroke-width="5"/>
      <path id="Path_29" data-name="Path 29" d="M189.688,176.3c-3.887,4.913-10.189,6.4-14.077,3.324l-59.853-47.352c-3.888-3.077-3.894-9.555-.009-14.466l1-1.261c3.885-4.911,10.19-6.4,14.079-3.321l59.851,47.352c3.888,3.076,3.894,9.553.005,14.464Z" transform="translate(84.8 83.884)" fill="#959595" stroke="#4b4b4b" stroke-width="5"/>
      <path id="Path_30" data-name="Path 30" d="M189.688,176.3c-3.887,4.913-10.189,6.4-14.077,3.324l-59.853-47.352c-3.888-3.077-3.894-9.555-.009-14.466l1-1.261c3.885-4.911,10.19-6.4,14.079-3.321l59.851,47.352c3.888,3.076,3.894,9.553.005,14.464Z" transform="translate(84.8 83.884)" fill="none" stroke="#4b4b4b" stroke-linecap="round" stroke-linejoin="round" stroke-width="5"/>
      <path id="Path_31" data-name="Path 31" d="M331.931,2.123s-80.959-13.956-163.4,90.245c-40.332,50.98-54.921,107.755-54.921,107.755l37.927,30.007,37.929,30.009s51.894-27.262,92.226-78.239C364.136,77.7,331.931,2.123,331.931,2.123" transform="translate(85.381 1.128)" fill="none" stroke="#4b4b4b" stroke-width="5"/>
      <path id="Path_32" data-name="Path 32" d="M331.931,2.123s-80.959-13.956-163.4,90.245c-40.332,50.98-54.921,107.755-54.921,107.755l37.927,30.007,37.929,30.009s24.492-12.867,53.1-37.621A302.454,302.454,0,0,0,281.694,181.9C364.136,77.7,331.931,2.123,331.931,2.123Z" transform="translate(85.381 1.128)" fill="none" stroke="#4b4b4b" stroke-linecap="round" stroke-linejoin="round" stroke-width="5"/>
      <path id="Path_33" data-name="Path 33" d="M270.624,69.762c7.165-42-3.754-67.64-3.754-67.64S239.4-2.6,200.181,14.032Z" transform="translate(150.44 1.129)" fill="#fff" stroke="#4b4b4b" stroke-width="5"/>
      <path id="Path_34" data-name="Path 34" d="M270.624,69.762c7.165-42-3.754-67.64-3.754-67.64S239.4-2.6,200.181,14.032Z" transform="translate(150.44 1.129)" fill="none" stroke="#4b4b4b" stroke-linecap="round" stroke-linejoin="round" stroke-width="5"/>
      <path id="Path_35" data-name="Path 35" d="M241.937,117.593a46.16,46.16,0,1,1-7.56-64.841,46.162,46.162,0,0,1,7.56,64.841" transform="translate(119.922 32.157)" fill="#fff" stroke="#4b4b4b" stroke-width="5"/>
      <path id="Path_37" data-name="Path 37" d="M228.829,106.255a35.363,35.363,0,0,1-63-19.365,34.9,34.9,0,0,1,.256-7.488,30.886,30.886,0,0,1,.7-3.647,34.523,34.523,0,0,1,3.979-9.59,32.494,32.494,0,0,1,2.6-3.794,35.37,35.37,0,0,1,62.573,28.009,33.343,33.343,0,0,1-.828,3.626,34.832,34.832,0,0,1-2.822,6.952,34.035,34.035,0,0,1-3.459,5.3" transform="translate(124.556 36.792)" fill="#fff" stroke="#4b4b4b" stroke-width="5"/>
      <path id="Path_38" data-name="Path 38" d="M228.829,106.255a35.363,35.363,0,0,1-63-19.365,34.9,34.9,0,0,1,.256-7.488,30.886,30.886,0,0,1,.7-3.647,34.523,34.523,0,0,1,3.979-9.59,32.494,32.494,0,0,1,2.6-3.794,35.37,35.37,0,0,1,62.573,28.009,33.343,33.343,0,0,1-.828,3.626,34.832,34.832,0,0,1-2.822,6.952A34.035,34.035,0,0,1,228.829,106.255Z" transform="translate(124.556 36.792)" fill="none" stroke="#4b4b4b" stroke-linecap="round" stroke-linejoin="round" stroke-width="5"/>
      <path id="Path_36" data-name="Path 36" d="M241.937,117.593a46.16,46.16,0,1,1-7.56-64.841A46.162,46.162,0,0,1,241.937,117.593Z" transform="translate(119.922 32.157)" fill="none" stroke="#4b4b4b" stroke-linecap="round" stroke-linejoin="round" stroke-width="5"/>
      <circle id="Ellipse_6" data-name="Ellipse 6" cx="3" cy="3" r="3" transform="translate(251 319)" fill="#fff"/>
      <circle id="Ellipse_7" data-name="Ellipse 7" cx="8" cy="8" r="8" transform="translate(345 342)" fill="#fff"/>
      <circle id="Ellipse_8" data-name="Ellipse 8" cx="1.5" cy="1.5" r="1.5" transform="translate(406 322)" fill="#fff"/>
      <circle id="Ellipse_9" data-name="Ellipse 9" cx="7" cy="7" r="7" transform="translate(387 328)" fill="#fff"/>
      <circle id="Ellipse_10" data-name="Ellipse 10" cx="2.5" cy="2.5" r="2.5" transform="translate(401 375)" fill="#fff"/>
      <g id="Ellipse_11" data-name="Ellipse 11" transform="translate(245 350)" fill="#fff" stroke="#707070" stroke-width="1">
        <circle cx="4" cy="4" r="4" stroke="none"/>
        <circle cx="4" cy="4" r="3.5" fill="none"/>
      </g>
      <circle id="Ellipse_12" data-name="Ellipse 12" cx="7.5" cy="7.5" r="7.5" transform="translate(268 335)" fill="#fff"/>
      <circle id="Ellipse_13" data-name="Ellipse 13" cx="2" cy="2" r="2" transform="translate(326 384)" fill="#fff"/>
      <circle id="Ellipse_14" data-name="Ellipse 14" cx="2" cy="2" r="2" transform="translate(316 354)" fill="#fff"/>
      <circle id="Ellipse_15" data-name="Ellipse 15" cx="4.5" cy="4.5" r="4.5" transform="translate(311 316)" fill="#fff"/>
      <circle id="Ellipse_16" data-name="Ellipse 16" cx="6" cy="6" r="6" transform="translate(284 397)" fill="#fff"/>
      <circle id="Ellipse_17" data-name="Ellipse 17" cx="3.5" cy="3.5" r="3.5" transform="translate(394 411)" fill="#fff"/>
      <circle id="Ellipse_18" data-name="Ellipse 18" cx="4" cy="4" r="4" transform="translate(401 441)" fill="#fff"/>
      <circle id="Ellipse_19" data-name="Ellipse 19" cx="3" cy="3" r="3" transform="translate(361 409)" fill="#fff"/>
      <circle id="Ellipse_20" data-name="Ellipse 20" cx="4.5" cy="4.5" r="4.5" transform="translate(216 375)" fill="#fff"/>
      <circle id="Ellipse_21" data-name="Ellipse 21" cx="3" cy="3" r="3" transform="translate(278 372)" fill="#fff"/>
      <circle id="Ellipse_22" data-name="Ellipse 22" cx="5.5" cy="5.5" r="5.5" transform="translate(330 411)" fill="#fff"/>
      <circle id="Ellipse_23" data-name="Ellipse 23" cx="5" cy="5" r="5" transform="translate(424 306)" fill="#fff"/>
      <circle id="Ellipse_24" data-name="Ellipse 24" cx="3" cy="3" r="3" transform="translate(432 397)" fill="#fff"/>
      <circle id="Ellipse_25" data-name="Ellipse 25" cx="3.5" cy="3.5" r="3.5" transform="translate(205 335)" fill="#fff"/>
      <circle id="Ellipse_26" data-name="Ellipse 26" cx="6.5" cy="6.5" r="6.5" transform="translate(136 306)" fill="#fff"/>
      <circle id="Ellipse_27" data-name="Ellipse 27" cx="3" cy="3" r="3" transform="translate(114 339)" fill="#fff"/>
      <circle id="Ellipse_28" data-name="Ellipse 28" cx="2" cy="2" r="2" transform="translate(143 321)" fill="#fff"/>
      <circle id="Ellipse_29" data-name="Ellipse 29" cx="1.5" cy="1.5" r="1.5" transform="translate(133 345)" fill="#fff"/>
      <circle id="Ellipse_30" data-name="Ellipse 30" cx="3" cy="3" r="3" transform="translate(358 310)" fill="#fff"/>
      <circle id="Ellipse_31" data-name="Ellipse 31" cx="4.5" cy="4.5" r="4.5" transform="translate(364 375)" fill="#fff"/>
    </g>
    <g id="Rectangle_6" data-name="Rectangle 6" transform="matrix(0.848, 0.53, -0.53, 0.848, -909.554, 497.981)" fill="#4b4b4b" stroke="#4b4b4b" stroke-width="1">
      <rect width="7" height="11" stroke="none"/>
      <rect x="0.5" y="0.5" width="6" height="10" fill="none"/>
    </g>
    <g id="Rectangle_7" data-name="Rectangle 7" transform="matrix(0.695, -0.719, 0.719, 0.695, -538.888, 502.197)" fill="#4b4b4b" stroke="#4b4b4b" stroke-width="1">
      <rect width="7" height="11" stroke="none"/>
      <rect x="0.5" y="0.5" width="6" height="10" fill="none"/>
    </g>
    <g id="Rectangle_8" data-name="Rectangle 8" transform="translate(-530.388 740.8) rotate(39)" fill="#4b4b4b" stroke="#4b4b4b" stroke-width="1">
      <rect width="6" height="10" stroke="none"/>
      <rect x="0.5" y="0.5" width="5" height="9" fill="none"/>
    </g>
    <g id="Rectangle_9" data-name="Rectangle 9" transform="translate(-916.909 746.309) rotate(-47)" fill="#4b4b4b" stroke="#4b4b4b" stroke-width="1">
      <rect width="5" height="11" stroke="none"/>
      <rect x="0.5" y="0.5" width="4" height="10" fill="none"/>
    </g>
    <path id="Path_76" data-name="Path 76" d="M234.588,625.869l16.3-3.387-6.246,31.183a75.028,75.028,0,0,0-1.5,13.273,48.241,48.241,0,0,0,1.5,11.587,57.878,57.878,0,0,0,4.874,18.617c4.286,9.153,12.268,17.995,12.268,17.995s13.743-17.473,34.815-6.718S315.853,742.1,315.853,742.1s11.061-19.839,30.513-18.149,24.11,22.464,24.11,22.464S384.3,728.4,402.263,738.3s15.98,27.3,15.98,27.3,11.715-19.064,28.194-13.843,14.1,25.055,14.1,25.055,9.336-22.125,27.649-17.225,17.841,12.423,17.841,12.423v23.137H160.259s-15.8-3.252-18.043-18.335,18.043-17.225,18.043-17.225-18.445-7.033-15.473-23.369,19.172-9.568,19.172-9.568L153.7,712.073s-6.311-15.772,6.554-27.777,21.727-8.322,21.727-8.322l8.616,2.549,8.241-2.549,6.389-7.451,24.96-47.71,2.95-5.245Z" transform="translate(-1064 -72)" fill="#eb9947" stroke="#707070" stroke-width="1"/>
    <path id="Path_77" data-name="Path 77" d="M280.375,527.984l33.844,26.6a30.177,30.177,0,0,1-4.452,8.641,64.444,64.444,0,0,1-8.474,8.834,55.552,55.552,0,0,1-9.409,7.271A127.425,127.425,0,0,1,278.3,586.3l-19.858,7.355,1.116-19.312s1.192-14.39,3.974-23.951a42.081,42.081,0,0,1,7.027-14.546A25.771,25.771,0,0,1,280.375,527.984Z" transform="translate(-1064 -72)" fill="#eb9947" stroke="#707070" stroke-width="1"/>
    <path id="Path_78" data-name="Path 78" d="M276.017,524.562l-2.31-2-7.743,4.047s-4.192,1.743-9.745,8.462-7.311,11.991-9.778,20.239a173.369,173.369,0,0,0-6.163,32l-2.1,33.377,16.647-4.761a116.926,116.926,0,0,0,18.878-7.951c10.3-5.4,11.956-5.4,22.313-13.665s12.76-10.88,19.115-19.414,6.3-14.725,6.3-14.725l-3.1-2.5a50.381,50.381,0,0,1-12.08,17.224c-8.6,7.956-10.3,8.47-22.959,14.96s-29.79,10.276-29.79,10.276-.331-8.618,0-16.407a142.224,142.224,0,0,1,4.817-33.608C262.283,535.631,270.912,528,276.017,524.562Z" transform="translate(-1064 -72)" fill="#ff7979" stroke="#707070" stroke-width="1"/>
    <path id="Path_80" data-name="Path 80" d="M483.207,304.891a120.137,120.137,0,0,0-28.618,1.162c-14.836,2.54-30.726,9-30.726,9l63.187,49.611s2.515-17.578,1.555-32.521A110.632,110.632,0,0,0,483.207,304.891Z" transform="translate(-1064 -72)" fill="#ff7979" stroke="#707070" stroke-width="1"/>
    <circle id="Ellipse_5" data-name="Ellipse 5" cx="39.5" cy="39.5" r="39.5" transform="translate(-710 309)" fill="#57b6d3"/>
  </g>
</svg>
