<svg xmlns="http://www.w3.org/2000/svg" xmlns:xlink="http://www.w3.org/1999/xlink" width="471.662" height="600.298" viewBox="0 0 471.662 600.298">
  <defs>
    <clipPath id="clip-path">
      <rect id="Rectangle_70" data-name="Rectangle 70" width="471.662" height="600.298" fill="none"/>
    </clipPath>
  </defs>
  <g id="Group_162" data-name="Group 162" transform="translate(5246 -1545)">
    <g id="Group_89" data-name="Group 89" transform="translate(-5246 1545)">
      <path id="Path_218" data-name="Path 218" d="M0,226.554,46.355,267.7l3.09-41.146Z" fill="#f46d38"/>
      <g id="Group_86" data-name="Group 86">
        <g id="Group_85" data-name="Group 85" clip-path="url(#clip-path)">
          <path id="Path_219" data-name="Path 219" d="M447.9,600.3H64.317A23.785,23.785,0,0,1,40.56,576.541V23.757A23.784,23.784,0,0,1,64.317,0H382.511l89.151,89.151v487.39A23.784,23.784,0,0,1,447.9,600.3" fill="#f5f5f5"/>
          <path id="Path_220" data-name="Path 220" d="M447.906,600.3H64.318a23.784,23.784,0,0,1-23.757-23.757V23.757A23.783,23.783,0,0,1,64.318,0H382.512l89.151,89.151v487.39A23.785,23.785,0,0,1,447.906,600.3M64.318,11.589A12.182,12.182,0,0,0,52.15,23.757V576.541a12.182,12.182,0,0,0,12.168,12.168H447.906a12.181,12.181,0,0,0,12.168-12.168V93.952L377.712,11.589Z" fill="#c9c9c9"/>
          <path id="Path_221" data-name="Path 221" d="M381.27,66.056A26.653,26.653,0,0,0,407.924,92.71h59.1L381.27,6.953Z" fill="#c9c9c9"/>
          <rect id="Rectangle_69" data-name="Rectangle 69" width="338.392" height="141.956" transform="translate(0 84.598)" fill="#fea352"/>
        </g>
      </g>
      <text id="AI" transform="translate(133.506 185.669)" fill="#fff" font-size="84.352" font-family="Arial-Black, Arial Black" font-weight="800"><tspan x="0" y="0">AI</tspan></text>
      <g id="Group_88" data-name="Group 88">
        <g id="Group_87" data-name="Group 87" clip-path="url(#clip-path)">
          <path id="Path_222" data-name="Path 222" d="M341.975,470.365a31.463,31.463,0,0,1-31.463,31.463h-123.9a31.464,31.464,0,0,1-31.463-31.463v-123.9A31.464,31.464,0,0,1,186.614,315h123.9a31.463,31.463,0,0,1,31.463,31.464" transform="translate(0 -10)" fill="#c9c9c9"/>
          <rect id="Rectangle_71" data-name="Rectangle 71" width="12.508" height="62.09" transform="translate(280.756 378.129)" fill="#fff"/>
          <path id="Path_223" data-name="Path 223" d="M287.009,379.922a7.538,7.538,0,1,0-7.539-7.539,7.539,7.539,0,0,0,7.539,7.539" transform="translate(0 -10)" fill="#fff"/>
          <path id="Path_224" data-name="Path 224" d="M222.056,366.814l1.139,3.8a3.236,3.236,0,0,1,0,1.865l-23.308,77.74H213.65l6.924-23.1H248.4l6.924,23.1h13.763l-25.112-83.756a.743.743,0,0,0-.713-.53H222.712a.684.684,0,0,0-.656.881m2.261,47.827,10.168-33.914,10.169,33.914Z" transform="translate(0 -10)" fill="#fff"/>
        </g>
      </g>
    </g>
  </g>
</svg>
