<svg xmlns="http://www.w3.org/2000/svg" xmlns:xlink="http://www.w3.org/1999/xlink" width="471.662" height="600.298" viewBox="0 0 471.662 600.298">
  <defs>
    <clipPath id="clip-path">
      <rect id="Rectangle_88" data-name="Rectangle 88" width="471.662" height="600.298" fill="none"/>
    </clipPath>
  </defs>
  <g id="Group_156" data-name="Group 156" transform="translate(2426 -2607)">
    <g id="Group_118" data-name="Group 118" transform="translate(-2426 2607)">
      <g id="Group_115" data-name="Group 115">
        <g id="Group_114" data-name="Group 114" clip-path="url(#clip-path)">
          <path id="Path_268" data-name="Path 268" d="M447.9,600.3H64.317A23.784,23.784,0,0,1,40.56,576.541V23.757A23.784,23.784,0,0,1,64.317,0H382.511l89.152,89.152V576.541A23.784,23.784,0,0,1,447.9,600.3" fill="#f5f5f5"/>
          <path id="Path_269" data-name="Path 269" d="M0,226.554,46.355,267.7l3.09-41.146Z" fill="#565656"/>
          <path id="Path_270" data-name="Path 270" d="M447.9,600.3H64.317A23.783,23.783,0,0,1,40.56,576.541V23.757A23.783,23.783,0,0,1,64.317,0H382.511l89.152,89.152V576.541A23.785,23.785,0,0,1,447.9,600.3M64.317,11.589A12.182,12.182,0,0,0,52.149,23.757V576.541a12.182,12.182,0,0,0,12.168,12.168H447.9a12.182,12.182,0,0,0,12.169-12.168V93.951L377.711,11.589Z" fill="#c9c9c9"/>
          <path id="Path_271" data-name="Path 271" d="M381.27,66.056A26.653,26.653,0,0,0,407.924,92.71h59.1L381.27,6.953Z" fill="#c9c9c9"/>
          <rect id="Rectangle_87" data-name="Rectangle 87" width="338.392" height="141.956" transform="translate(-0.001 84.598)" fill="#2b414d"/>
        </g>
      </g>
      <text id="GITHUB" transform="translate(25.208 181.605)" fill="#fff" font-size="65.846" font-family="Arial-Black, Arial Black" font-weight="800"><tspan x="0" y="0">GITHUB</tspan></text>
      <g id="Group_117" data-name="Group 117">
        <g id="Group_116" data-name="Group 116" clip-path="url(#clip-path)">
          <path id="Path_272" data-name="Path 272" d="M232.809,292.08a97.25,97.25,0,1,0,97.25,97.25,97.254,97.254,0,0,0-97.25-97.25m27.242,171.336c-.56-7.61-1.185-17.037-1.222-20.854-.243-2.929-.56-10.382-7.634-15.139,28.087-2.353,41.452-17.876,42.413-38.39.8-11.682-3.842-21.954-12.089-30.245a166.165,166.165,0,0,0-.84-24c-6.333-1.824-21.1,5.974-25.229,9.312-8.7-3.38-30.009-4.565-42.955,0-9.178-6.456-19.626-10.443-25.321-9.33-5.257,11.652-1.878,22.666-.851,23.978-6.771,6.188-16.217,13.8-13.651,29.76,4.115,23.394,20.574,36.012,47.074,39.1-5.653,1.156-6.607,5.374-7.081,7.2-17.8,7.341-22.883-4.534-25.133-7.628-7.469-9.245-14.174-6.564-14.587-6.418a1.163,1.163,0,0,0-.662,1.008c.376,1.994,4.443,4.019,4.643,4.182,5.512,4.109,7.554,11.53,8.813,13.646,7.907,13,26.287,7.61,26.464,7.719.012,1.135-.127,10.7-.237,18.149a79.031,79.031,0,1,1,48.085-2.056" transform="translate(22 8)" fill="#c9c9c9"/>
        </g>
      </g>
    </g>
  </g>
</svg>
