<svg xmlns="http://www.w3.org/2000/svg" xmlns:xlink="http://www.w3.org/1999/xlink" width="471.662" height="600.298" viewBox="0 0 471.662 600.298">
  <defs>
    <clipPath id="clip-path">
      <rect id="Rectangle_98" data-name="Rectangle 98" width="471.662" height="600.298" fill="none"/>
    </clipPath>
    <clipPath id="clip-path-4">
      <rect id="Rectangle_92" data-name="Rectangle 92" width="81.271" height="146.545" transform="translate(355.366 293.25)" fill="none"/>
    </clipPath>
    <clipPath id="clip-path-5">
      <path id="Path_279" data-name="Path 279" d="M398.823,294.066a.259.259,0,0,1-.071.212h0a1.714,1.714,0,0,0,0,.848s.917,6-.142,8.684L355.124,416.976a16.213,16.213,0,0,0,30.286,11.578L428.9,315.386c.846-2.189,5.717-6.494,5.717-6.494a4.542,4.542,0,0,0,.565-.636v-.07c0-.071.071-.071.071-.142,1.129-2.9-6.142-8.4-16.167-12.284-5.909-2.289-11.5-3.5-15.325-3.5-2.665,0-4.473.587-4.937,1.8" fill="none"/>
    </clipPath>
    <linearGradient id="linear-gradient" x1="-2.841" y1="1.609" x2="-2.832" y2="1.609" gradientUnits="objectBoundingBox">
      <stop offset="0" stop-color="#919191"/>
      <stop offset="1" stop-color="#fff"/>
    </linearGradient>
    <clipPath id="clip-path-7">
      <rect id="Rectangle_94" data-name="Rectangle 94" width="51.659" height="143.19" transform="translate(354.095 295.116)" fill="none"/>
    </clipPath>
    <clipPath id="clip-path-8">
      <rect id="Rectangle_95" data-name="Rectangle 95" width="22.093" height="43.154" transform="translate(372.58 366.641)" fill="none"/>
    </clipPath>
    <clipPath id="clip-path-9">
      <rect id="Rectangle_96" data-name="Rectangle 96" width="308.223" height="115.736" transform="translate(76.369 319.895)" fill="none"/>
    </clipPath>
  </defs>
  <g id="Group_158" data-name="Group 158" transform="translate(2931 -1544)">
    <g id="Group_140" data-name="Group 140" transform="translate(-2931 1544)">
      <g id="Group_139" data-name="Group 139" clip-path="url(#clip-path)">
        <g id="Group_120" data-name="Group 120">
          <g id="Group_119" data-name="Group 119" clip-path="url(#clip-path)">
            <path id="Path_273" data-name="Path 273" d="M447.9,600.3H64.317A23.784,23.784,0,0,1,40.56,576.541V23.757A23.784,23.784,0,0,1,64.317,0H382.511l89.152,89.152V576.541A23.784,23.784,0,0,1,447.9,600.3" fill="#f5f5f5"/>
            <path id="Path_274" data-name="Path 274" d="M0,226.554,46.355,267.7l3.09-41.146Z" fill="#565656"/>
            <path id="Path_275" data-name="Path 275" d="M447.9,600.3H64.317A23.783,23.783,0,0,1,40.56,576.541V23.757A23.783,23.783,0,0,1,64.317,0H382.511l89.152,89.152V576.541A23.785,23.785,0,0,1,447.9,600.3M64.317,11.589A12.182,12.182,0,0,0,52.149,23.757V576.541a12.182,12.182,0,0,0,12.168,12.168H447.9a12.182,12.182,0,0,0,12.169-12.168V93.951L377.711,11.589Z" fill="#c9c9c9"/>
            <path id="Path_276" data-name="Path 276" d="M381.27,66.056A26.653,26.653,0,0,0,407.924,92.71h59.1L381.27,6.953Z" fill="#c9c9c9"/>
            <rect id="Rectangle_90" data-name="Rectangle 90" width="338.392" height="141.956" transform="translate(-0.001 84.598)" fill="#2b414d"/>
          </g>
        </g>
        <text id="JEKYLL" transform="translate(25.208 181.605)" fill="#fff" font-size="65.846" font-family="Arial-Black, Arial Black" font-weight="800"><tspan x="0" y="0">JEKYLL</tspan></text>
        <g id="Group_125" data-name="Group 125">
          <g id="Group_124" data-name="Group 124" clip-path="url(#clip-path)">
            <g id="Group_123" data-name="Group 123" opacity="0.1" style="isolation: isolate">
              <g id="Group_122" data-name="Group 122">
                <g id="Group_121" data-name="Group 121" clip-path="url(#clip-path-4)">
                  <path id="Path_277" data-name="Path 277" d="M400.023,295.267a1.71,1.71,0,0,0,0,.847s.917,6-.142,8.682L356.393,417.964a16.213,16.213,0,0,0,30.287,11.577l43.488-113.167c.846-2.188,5.718-6.495,5.718-6.495a4.594,4.594,0,0,0,.565-.634v-.071c0-.071.07-.071.07-.141,1.13-2.895-6.142-8.4-16.166-12.284s-19.132-4.66-20.262-1.7a.314.314,0,0,0-.07.213"/>
                </g>
              </g>
            </g>
          </g>
        </g>
        <g id="Group_127" data-name="Group 127">
          <g id="Group_126" data-name="Group 126" clip-path="url(#clip-path-5)">
            <path id="Path_278" data-name="Path 278" d="M335.2,434.44l97.508,37.5L453.2,298.729l-97.508-37.5Z" fill="url(#linear-gradient)"/>
          </g>
        </g>
        <g id="Group_138" data-name="Group 138">
          <g id="Group_137" data-name="Group 137" clip-path="url(#clip-path)">
            <path id="Path_280" data-name="Path 280" d="M412.448,345.46l-31.416,81.61a11.682,11.682,0,0,1-15.037,6.567,11.952,11.952,0,0,1-6.988-15.038l20.048-52.171a22.941,22.941,0,0,1,7.414-6.918c4.941-2.9,8.965-2.26,14.4-4.66,5.506-2.4,11.577-9.39,11.577-9.39" fill="#b2b2b2" opacity="0.499"/>
            <path id="Path_281" data-name="Path 281" d="M427.682,305.684c.626-1.634-3.878-4.893-10.06-7.279s-11.7-3-12.326-1.365,3.878,4.891,10.06,7.279,11.7,3,12.326,1.365" fill="#cecece"/>
            <g id="Group_130" data-name="Group 130" opacity="0.3" style="isolation: isolate">
              <g id="Group_129" data-name="Group 129">
                <g id="Group_128" data-name="Group 128" clip-path="url(#clip-path-7)">
                  <path id="Path_282" data-name="Path 282" d="M398.46,295.116s.912,5.984-.141,8.659l-43.2,112.849a16.115,16.115,0,0,0,9.328,20.7,13.469,13.469,0,0,0,4.348.985,16.293,16.293,0,0,1-5.4-18.585l42.362-110.6a27.09,27.09,0,0,1-7.294-14.01" fill="#fff"/>
                </g>
              </g>
            </g>
            <g id="Group_133" data-name="Group 133" opacity="0.5">
              <g id="Group_132" data-name="Group 132">
                <g id="Group_131" data-name="Group 131" clip-path="url(#clip-path-8)">
                  <path id="Path_283" data-name="Path 283" d="M384.573,366.642a1.266,1.266,0,1,1-1.263,1.267,1.265,1.265,0,0,1,1.263-1.267" fill="#fff"/>
                  <path id="Path_284" data-name="Path 284" d="M392.779,375.089a1.9,1.9,0,1,1-1.894,1.9,1.9,1.9,0,0,1,1.894-1.9" fill="#fff"/>
                  <path id="Path_285" data-name="Path 285" d="M380.224,384.24a3.591,3.591,0,1,1-3.577,3.59,3.583,3.583,0,0,1,3.577-3.59" fill="#fff"/>
                  <path id="Path_286" data-name="Path 286" d="M374.473,392.548a1.9,1.9,0,1,1-1.894,1.9,1.9,1.9,0,0,1,1.894-1.9" fill="#fff"/>
                  <path id="Path_287" data-name="Path 287" d="M381.978,407.261a1.267,1.267,0,1,1-1.263,1.267,1.265,1.265,0,0,1,1.263-1.267" fill="#fff"/>
                </g>
              </g>
            </g>
            <g id="Group_136" data-name="Group 136" opacity="0.1" style="isolation: isolate">
              <g id="Group_135" data-name="Group 135">
                <g id="Group_134" data-name="Group 134" clip-path="url(#clip-path-9)">
                  <path id="Path_288" data-name="Path 288" d="M160.346,360.939c1.905,1.549,5.365.634,7.7-1.9,2.471-2.675,2.825-6.124.918-7.673s-5.365-.634-7.695,2.042c-2.471,2.674-2.894,6.054-.918,7.533Zm-5.718,5c-.5,0-1.413.915-.635,1.267a2.386,2.386,0,0,1,1.552,2.535c-.917,5.28-7.483,11.264-10.024,13.3-.636.633.282,2.041.917,1.549a39.48,39.48,0,0,0,6.777-6.547c-3.953,8.8-11.718,20.2-14.683,24.217-11.578,15.98-29.157,30.693-41.229,30.693a19.647,19.647,0,0,1-19.626-16.121c-.141-1.056-1.553-1.267-1.271.141,2.188,13.164,12.354,18.3,24.638,18.3,13.485,0,29.3-9.714,38.052-19.711,14.119-16.121,23.227-34.706,20.826-45.2-.988-3.872-3.741-4.506-5.294-4.435m86.763,35.129c3.742-.915,6.777-2.956,6.777-6.2,0-.352-.634-.352-.634,0,0,1.9-2.189,3.52-4.659,3.872-5.79.915-17.227-5.843-22.592-12.813,5.789,2.183,17.579-.985,23.156-5,5.153-3.732,7.2-7.814,7.554-11.123.635-5.491-5.366-8.729-13.767-5.491-5.365,2.182-11.79,6.9-18.5,15.769,7.06-11.616,20.968-30.623,34.593-42.731,16.59-14.713,26.191-11.9,11.3,3.731-6.142,6.4-17.72,14.713-25.7,18.3-2.47,1.056-1.27,2.463.5,1.688,8.47-3.73,19.766-11.4,26.614-17.81,20.19-19.36,3.317-33.932-18.991-13.445-15.178,13.938-25.061,28.51-33.675,47.448-2.964,3.59-5.153,6.546-7.836,8.8a4.2,4.2,0,0,0-.777.845c-7.413,6.336-19.06,14.924-26.332,14.994-5.154.142-7.342-3.731-6.424-8.728,1.412-7.815,9.53-17.037,16.449-20.205,8.966-4.083,14.26,3.872,2.471,10.207-4.518,2.324-9.883,3.591-12.072,3.591-2.542,0-2.33,1.055-.141,1.127,3.6.14,9.388-1.409,13.2-3.168,12.072-5.773,12.848-16.544-.282-16.9-14.261-.493-31.345,11.615-31.2,26.893.141,6.9,5.648,10.63,13.2,10.63,12.636-.142,23.861-9.716,33.11-18.163,1.341-1.127,2.611-2.324,3.882-3.59-3.247,8.166-4.871,15.768-4.095,21.4.495,4.083,2.824,5.984,4.659,7.533.355.282,1.13,0,.637-.775-2.684-3.167-1.906-12.671,1.765-21.893,3.105,6.2,15.177,14.009,27.814,11.193m-15.178-26.681c14.755-13.164,20.543-1.408,11.155,5.773-4.872,3.731-14.543,6.546-17.578,4.716l-.637-.351c-.353-.634-.777-1.268-1.059-1.9a74.649,74.649,0,0,1,8.119-8.237m82.034-14.994c5.93.633,3.459-6.548-2.542-4.717-2.682.774-5.294,5.913-7.2,10.349-5.929,8.8-15.813,20.837-22.732,27.173-6.142,5.28-11.789,6.688-4.871-3.168,2.824-3.943,6.425-8.166,8.472-12.39,4.871-10.63-5.507-15.347-13.909-8.941-4.87,3.731-11.436,11.4-16.589,15.628-1.413,1.126-1.059,2.816.353,1.69,4.1-3.309,11.3-10.912,17.508-15.347,5.153-3.942,7.2-1.407,4.235,1.9-4.094,4.716-11.3,12.954-13.13,18.163-2.542,7.814.493,11.263,5.648,11.263,7.058,0,17.578-10.981,24.637-19.711,2.33-2.957,4.872-6.406,7.06-9.715-6.142,11.9-12.566,23.935-20.544,34.847-11.3,15.347-25.415,26.892-38.828,26.892a19.794,19.794,0,0,1-19.767-16.121c-.141-1.056-1.412-1.268-1.271.141,2.188,13.164,12.354,18.3,24.639,18.3,13.484,0,26.473-7.813,35.581-17.388,18.355-19.36,20.543-41.112,26.191-53.292,2.683-5.56,5.083-5.771,7.06-5.56M382.938,340.8c2.684-4.575,2.542-8.165-3.741-8.165-4.731.141-13.343,3.448-17.367,6.546-.918.915-.495,1.408.635.915.777-.281,1.7-.775,2.542-1.126,4.518-2.464,2.682,2.676,1.694,4.576-5.366,9.363-14.9,22.527-19.909,29.074a99.4,99.4,0,0,1-7.7,9.152c-4.8,4.577-14.331,12.673-21.6,15.346-23.368,8.73,6.424-30.974,8.9-34.213,5.507-6.9,17.86-18.937,21.6-24.991,2.682-4.576,2.542-8.166-3.743-8.166-4.729.141-13.341,3.449-17.366,6.547-.918.915-.494,1.407.636.915.776-.281,1.693-.774,2.541-1.127,4.519-2.463,2.683,2.676,1.694,4.577-5.365,9.363-14.9,22.527-19.908,29.075a83.159,83.159,0,0,1-12.99,14.079c-1.553,1.267-.635,2.464.918,1.408a43.764,43.764,0,0,0,5.789-5.351c-4.236,8.449-7.7,20.346,3.459,21.753,9.531,1.267,20.826-8.377,28.168-15.557l2.612-2.605.636-.634c-4.236,8.448-7.7,20.345,3.459,21.753,12.213,1.69,27.392-14.713,33.252-20.767,1.129-1.126.776-3.1-1.13-1.126-3.459,3.59-15.179,14.219-23.649,17.387-23.369,8.73,6.423-30.974,8.894-34.213,5.577-7.04,17.932-19.078,21.673-25.061Z"/>
                </g>
              </g>
            </g>
            <path id="Path_289" data-name="Path 289" d="M159.076,359.742c1.906,1.549,5.365.634,7.695-1.9,2.471-2.675,2.824-6.124.918-7.673s-5.366-.634-7.695,2.041c-2.471,2.676-2.825,5.984-.918,7.533m-5.647,5c-.495,0-1.412.915-.636,1.268a2.384,2.384,0,0,1,1.553,2.534c-.917,5.279-7.484,11.264-10.025,13.3-.635.633.284,2.042.917,1.549a39.589,39.589,0,0,0,6.779-6.547c-3.954,8.8-11.72,20.2-14.685,24.216-11.578,15.981-29.157,30.694-41.228,30.694a19.645,19.645,0,0,1-19.626-16.12c-.142-1.057-1.553-1.268-1.271.139,2.189,13.165,12.355,18.3,24.639,18.3,13.483,0,29.3-9.715,38.051-19.711,14.119-16.121,23.226-34.706,20.826-45.2-1.059-3.944-3.742-4.577-5.294-4.436m86.692,35.129c3.741-.916,6.777-2.957,6.777-6.195,0-.353-.635-.353-.635,0,0,1.9-2.188,3.519-4.659,3.872-5.79.915-17.226-5.843-22.591-12.813,5.789,2.183,17.578-.985,23.156-5,5.153-3.731,7.2-7.814,7.554-11.123.634-5.491-5.366-8.729-13.767-5.491-5.365,2.183-11.79,6.9-18.5,15.77,7.059-11.617,20.967-30.624,34.593-42.732,16.59-14.713,26.19-11.9,11.295,3.731-6.143,6.406-17.72,14.712-25.7,18.3-2.47,1.056-1.27,2.464.5,1.69,8.471-3.731,19.766-11.4,26.614-17.812,20.191-19.358,3.318-33.931-18.99-13.445-15.178,13.868-25.061,28.512-33.674,47.448-2.966,3.591-5.155,6.548-7.837,8.8a4.18,4.18,0,0,0-.777.845c-7.413,6.336-19.061,14.924-26.333,14.995-5.153.14-7.341-3.732-6.423-8.73,1.411-7.814,9.53-17.037,16.449-20.2,8.966-4.083,14.26,3.872,2.471,10.207-4.519,2.323-9.884,3.591-12.073,3.591-2.542,0-2.329,1.056-.141,1.126,3.6.141,9.389-1.407,13.2-3.168,12.072-5.771,12.848-16.543-.283-16.894-14.26-.494-31.345,11.615-31.2,26.891.141,6.9,5.647,10.63,13.2,10.63,12.636-.142,23.861-9.715,33.109-18.162,1.341-1.127,2.612-2.324,3.883-3.591-3.248,8.166-4.871,15.769-4.1,21.4.495,4.084,2.824,5.985,4.66,7.534.353.281,1.129,0,.635-.775-2.683-3.168-1.906-12.672,1.765-21.893,3.176,6.2,15.249,14.008,27.815,11.193m-15.179-26.752c14.756-13.164,20.544-1.408,11.156,5.774-4.872,3.731-14.543,6.546-17.579,4.716l-.636-.352c-.354-.633-.777-1.267-1.059-1.9a81.5,81.5,0,0,1,8.118-8.236Zm82.035-14.923c5.929.634,3.459-6.548-2.541-4.717-2.684.774-5.3,5.914-7.2,10.349-5.93,8.8-15.814,20.838-22.732,27.173-6.143,5.28-11.79,6.688-4.871-3.168,2.823-3.941,6.424-8.165,8.472-12.39,4.871-10.63-5.507-15.346-13.909-8.941-4.871,3.731-11.435,11.4-16.589,15.629-1.413,1.127-1.059,2.815.353,1.689,4.1-3.308,11.295-10.911,17.507-15.346,5.154-3.943,7.2-1.408,4.236,1.9-4.1,4.718-11.295,12.954-13.131,18.164-2.542,7.814.494,11.263,5.648,11.263,7.059,0,17.579-10.982,24.638-19.711,2.331-2.957,4.872-6.406,7.059-9.716-6.141,11.9-12.564,23.937-20.542,34.848-11.3,15.346-25.415,26.892-38.829,26.892a19.8,19.8,0,0,1-19.768-16.121c-.141-1.057-1.411-1.267-1.27.141,2.188,13.163,12.354,18.3,24.639,18.3,13.484,0,26.473-7.813,35.581-17.387,18.355-19.361,20.544-41.113,26.191-53.292,2.683-5.561,5.153-5.843,7.059-5.561Zm74.691-18.656c2.683-4.576,2.542-8.167-3.741-8.167-4.731.142-13.343,3.45-17.367,6.548-.918.915-.495,1.407.634.915.778-.281,1.7-.775,2.542-1.127,4.519-2.464,2.683,2.675,1.7,4.576-5.366,9.363-14.9,22.527-19.909,29.074a99.574,99.574,0,0,1-7.7,9.153c-4.8,4.575-14.33,12.671-21.6,15.346-23.369,8.73,6.423-30.975,8.894-34.214,5.507-6.9,17.86-18.936,21.6-24.991,2.682-4.576,2.541-8.166-3.743-8.166-4.729.141-13.342,3.449-17.366,6.547-.918.915-.494,1.408.636.915.775-.281,1.693-.773,2.541-1.126,4.518-2.464,2.683,2.675,1.694,4.576-5.365,9.363-14.9,22.528-19.908,29.074a83.211,83.211,0,0,1-12.99,14.08c-1.553,1.266-.635,2.464.918,1.408a43.7,43.7,0,0,0,5.789-5.351c-4.236,8.449-7.7,20.345,3.459,21.754,9.53,1.267,20.826-8.378,28.168-15.558l2.612-2.606.636-.633c-4.236,8.449-7.7,20.345,3.459,21.753,12.214,1.69,27.392-14.713,33.251-20.767,1.129-1.126.776-3.1-1.129-1.126-3.459,3.59-15.179,14.219-23.65,17.387-23.368,8.73,6.423-30.974,8.894-34.213,5.649-7.04,17.932-19.078,21.674-25.061" fill="#c9c9c9"/>
          </g>
        </g>
      </g>
    </g>
  </g>
</svg>
