<svg xmlns="http://www.w3.org/2000/svg" xmlns:xlink="http://www.w3.org/1999/xlink" width="471.662" height="601.457" viewBox="0 0 471.662 601.457">
  <defs>
    <clipPath id="clip-path">
      <rect id="Rectangle_76" data-name="Rectangle 76" width="471.662" height="601.457" fill="none"/>
    </clipPath>
  </defs>
  <g id="Group_160" data-name="Group 160" transform="translate(4049 -1544)">
    <g id="Group_97" data-name="Group 97" transform="translate(-4049 1544)">
      <g id="Group_94" data-name="Group 94">
        <g id="Group_93" data-name="Group 93" clip-path="url(#clip-path)">
          <path id="Path_231" data-name="Path 231" d="M446.747,600.3H63.159A23.784,23.784,0,0,1,39.4,576.541V23.757A23.784,23.784,0,0,1,63.159,0H381.353L470.5,89.151v487.39A23.783,23.783,0,0,1,446.747,600.3" fill="#f5f5f5"/>
          <path id="Path_232" data-name="Path 232" d="M0,227.713l46.355,41.146,3.09-41.146Z" fill="#19407f"/>
          <path id="Path_233" data-name="Path 233" d="M447.906,601.457H64.318A23.783,23.783,0,0,1,40.561,577.7V24.916A23.784,23.784,0,0,1,64.318,1.159H382.512L471.663,90.31V577.7a23.784,23.784,0,0,1-23.757,23.757M64.318,12.748A12.182,12.182,0,0,0,52.15,24.916V577.7a12.182,12.182,0,0,0,12.168,12.168H447.906A12.181,12.181,0,0,0,460.074,577.7V95.111L377.712,12.748Z" fill="#c9c9c9"/>
          <path id="Path_234" data-name="Path 234" d="M381.27,67.215a26.654,26.654,0,0,0,26.654,26.654h59.1L381.27,8.112Z" fill="#c9c9c9"/>
          <rect id="Rectangle_75" data-name="Rectangle 75" width="338.392" height="141.956" transform="translate(0 85.757)" fill="#2042ba"/>
        </g>
      </g>
      <text id="POSTGRESQL" transform="translate(31 175)" fill="#fff" font-size="39" font-family="Arial-Black, Arial Black" font-weight="800"><tspan x="0" y="0">POSTGRESQL</tspan></text>
      <g id="Group_96" data-name="Group 96">
        <g id="Group_95" data-name="Group 95" clip-path="url(#clip-path)">
          <path id="Path_235" data-name="Path 235" d="M289.8,320.942a85.008,85.008,0,0,0-23.106,3.38l-.528.168a91.619,91.619,0,0,0-14.341-1.384,47.9,47.9,0,0,0-25.211,6.224c-6.743-2.341-20.733-6.374-35.476-5.569-10.266.561-21.471,3.681-29.774,12.445-8.278,8.765-12.655,22.326-11.733,40.777.252,5.091,1.7,13.394,4.11,24.146a284.2,284.2,0,0,0,10.005,34.822c4.219,11.49,8.84,21.806,16.061,28.818,3.606,3.514,8.571,6.466,14.425,6.222a18.508,18.508,0,0,0,11.029-4.629,13.238,13.238,0,0,0,4.747,3.782,22.971,22.971,0,0,0,5.7,2.231,39.626,39.626,0,0,0,16.337.839,30.9,30.9,0,0,0,7.339-2.264c.092,2.767.2,5.476.31,8.218.344,8.689.562,16.716,3.171,23.752.419,1.149,1.568,7.07,6.1,12.3s13.4,8.5,23.508,6.332c7.129-1.526,16.2-4.277,22.217-12.848,5.955-8.471,8.638-20.624,9.166-40.333.135-1.065.294-1.971.462-2.818l1.417.126h.168c7.607.344,15.86-.738,22.753-3.942,6.106-2.826,10.727-5.686,14.09-10.76a10.765,10.765,0,0,0,2.013-5.393,10.956,10.956,0,0,0-3.74-8.6c-4.991-3.791-8.127-2.349-11.49-1.652a52.621,52.621,0,0,1-10.081,1.224,192.938,192.938,0,0,0,20.615-49.021,106.823,106.823,0,0,0,3.773-24.716c.11-7.3-.486-13.771-4.864-19.365-13.679-17.478-32.909-22.309-47.788-22.477-.461-.008-.922-.017-1.384-.008Zm-.394,5.368c14.073-.134,32.054,3.816,44.962,20.313,2.9,3.707,3.765,9.125,3.665,15.8a103.2,103.2,0,0,1-3.6,23.4,188.017,188.017,0,0,1-24.3,54.414,6.4,6.4,0,0,0,1.325.721c2.433,1.006,7.976,1.871,19.039-.4,2.784-.587,4.822-.982,6.936.629a4.36,4.36,0,0,1,1.534,3.564,5.9,5.9,0,0,1-1.09,2.818c-2.139,3.212-6.357,6.257-11.767,8.764-4.789,2.231-11.657,3.4-17.746,3.464a27.167,27.167,0,0,1-8.262-.948l-.15-.058c-.923,8.89-3.045,26.443-4.429,34.453-1.107,6.458-3.044,11.59-6.742,15.431s-8.916,6.157-15.944,7.666c-8.705,1.87-15.054-.143-19.147-3.59s-5.955-8-7.079-10.793a31.541,31.541,0,0,1-1.559-7.767c-.386-3.337-.671-7.422-.865-12.026q-.384-10.576-.251-21.161a25.663,25.663,0,0,1-13.016,6.374,34.322,34.322,0,0,1-14.015-.754,19.066,19.066,0,0,1-4.361-1.686,8.062,8.062,0,0,1-3.69-3.33,4.694,4.694,0,0,1-.478-3.195,5.115,5.115,0,0,1,1.828-2.776c1.661-1.35,3.858-2.105,7.171-2.793,6.03-1.241,8.135-2.088,9.418-3.1,1.091-.872,2.324-2.634,4.5-5.217-.01-.114-.019-.229-.025-.343a24.826,24.826,0,0,1-11.154-3c-1.259,1.325-7.683,8.118-15.516,17.546-3.3,3.941-6.936,6.206-10.777,6.365s-7.314-1.77-10.266-4.63c-5.895-5.728-10.6-15.582-14.7-26.72a279.274,279.274,0,0,1-9.787-34.109c-2.374-10.567-3.774-19.088-3.976-23.2-.88-17.462,3.2-29.228,10.207-36.651s16.623-10.232,25.991-10.768c16.815-.965,32.784,4.9,36.013,6.155,6.223-4.227,14.241-6.86,24.255-6.692a61.949,61.949,0,0,1,14.1,1.828l.168-.075a57.5,57.5,0,0,1,6.2-1.795,80.709,80.709,0,0,1,17.37-2.105Zm1.275,5.619h-1.224a73.3,73.3,0,0,0-14.292,1.611,62.839,62.839,0,0,1,23.9,18.87,70.8,70.8,0,0,1,9.494,16.1,38.582,38.582,0,0,1,1.895,5.535,11.526,11.526,0,0,1,.336,1.979,3.722,3.722,0,0,1-.1,1.208c0,.025-.042.084-.05.109.251,7.347-1.569,12.329-1.787,19.34-.167,5.083,1.132,11.054,1.451,17.57.3,6.123-.436,12.849-4.411,19.45.335.4.637.8.956,1.207A183.257,183.257,0,0,0,328.992,384.4a98.686,98.686,0,0,0,3.413-22.074c.084-6.038-1.04-10.416-2.474-12.244-11.255-14.393-26.485-18.058-39.25-18.158Zm-40.173,2.147c-9.913.026-17.026,3.02-22.418,7.506-5.561,4.639-9.293,10.987-11.742,17.487a74.17,74.17,0,0,0-4.3,20.246l.109-.067a43.441,43.441,0,0,1,11.138-4.328c4.21-.964,8.747-1.266,12.856.327s7.507,5.343,8.74,11.029c5.9,27.316-1.837,37.472-4.688,45.138a80.649,80.649,0,0,0-2.777,8.5,8.165,8.165,0,0,1,1.082-.218,9.164,9.164,0,0,1,4.529.906,11.022,11.022,0,0,1,5.9,6.541,11.554,11.554,0,0,1,.6,2.382,2.822,2.822,0,0,1,.168,1.065q-.477,15.674.109,31.35c.193,4.512.478,8.488.838,11.624a32.043,32.043,0,0,0,1.2,6.315c1.073,2.685,2.642,6.2,5.476,8.589s6.9,3.975,14.334,2.382c6.441-1.384,10.416-3.305,13.074-6.064s4.236-6.6,5.251-12.48c1.518-8.806,4.571-34.344,4.939-39.149a16.07,16.07,0,0,1,1.527-8.53,9.922,9.922,0,0,1,4.63-4.235,15.654,15.654,0,0,1,2.155-.78q-.972-1.4-2.038-2.726a37.358,37.358,0,0,1-5.586-9.217q-1.01-2.061-2.155-4.051c-1.116-2.012-2.524-4.529-4-7.355-2.953-5.661-6.165-12.522-7.834-19.206s-1.9-13.587,2.357-18.459c3.774-4.328,10.4-6.123,20.346-5.117-.293-.88-.47-1.61-.964-2.784a65.547,65.547,0,0,0-8.731-14.794c-8.429-10.777-22.074-21.462-43.159-21.806h-.964Zm-55.705.436c-1.066,0-2.131.034-3.187.092-8.471.487-16.481,2.944-22.209,9.017s-9.51,16.027-8.689,32.507c.16,3.12,1.518,11.859,3.85,22.242a275.9,275.9,0,0,0,9.578,33.4c3.967,10.794,8.773,20.187,13.335,24.632,2.3,2.223,4.294,3.12,6.1,3.045s4.009-1.132,6.685-4.345q7.315-8.826,15.18-17.176a29.329,29.329,0,0,1-9.787-26.419,104.269,104.269,0,0,0,.88-16.572c-.1-4.462-.419-7.431-.419-9.284,0-.053,0-.107,0-.159v-.042l-.009-.051v-.008a82.966,82.966,0,0,1,4.966-28.314,48.423,48.423,0,0,1,11.087-17.713,95.068,95.068,0,0,0-24.188-4.764q-1.593-.081-3.187-.083Zm103.98,44.3c-5.695.076-8.89,1.544-10.568,3.464-2.373,2.726-2.6,7.507-1.124,13.394s4.5,12.488,7.355,17.965c1.426,2.742,2.81,5.208,3.926,7.213a50.492,50.492,0,0,1,2.448,4.654,26.849,26.849,0,0,0,1.494,3.036,28.236,28.236,0,0,0,2.373-13.989c-.294-5.9-1.661-11.926-1.459-18.032.226-7.137,1.635-11.783,1.761-17.3a48.782,48.782,0,0,0-6.206-.4m-69.058.965a23.594,23.594,0,0,0-5.166.621,39.083,39.083,0,0,0-9.67,3.766,20.158,20.158,0,0,0-2.927,1.912l-.185.168c.051,1.224.294,4.193.4,8.562a109.9,109.9,0,0,1-.94,17.479c-2,14.341,8.4,26.217,20.632,26.234a82.078,82.078,0,0,1,3.061-9.075c3.4-9.175,10.106-15.868,4.462-41.985-.923-4.277-2.751-6-5.267-6.978a12.377,12.377,0,0,0-4.395-.7m66.4,1.711h.419a7.385,7.385,0,0,1,1.51.184,3.44,3.44,0,0,1,1.157.462,1.372,1.372,0,0,1,.629.923l-.008.067h0a2.016,2.016,0,0,1-.294,1.132,5.58,5.58,0,0,1-.922,1.258,5.675,5.675,0,0,1-3.238,1.778,4.949,4.949,0,0,1-3.438-.864,5.083,5.083,0,0,1-1.09-.99,2.175,2.175,0,0,1-.529-1.065,1.427,1.427,0,0,1,.352-1.073,3.215,3.215,0,0,1,.982-.755,9.336,9.336,0,0,1,3.128-.973,10.767,10.767,0,0,1,1.342-.109ZM230.539,382.9a10.136,10.136,0,0,1,1.392.109,9.189,9.189,0,0,1,3.3,1.023,3.741,3.741,0,0,1,1.115.889,1.867,1.867,0,0,1,.453,1.426,2.537,2.537,0,0,1-.628,1.292,5.482,5.482,0,0,1-1.2,1.09,5.369,5.369,0,0,1-3.757.948,6.1,6.1,0,0,1-3.522-1.913,5.944,5.944,0,0,1-.99-1.375,2.343,2.343,0,0,1-.344-1.485,2.144,2.144,0,0,1,1.6-1.635,7.243,7.243,0,0,1,2.574-.335Zm75.984,61.584-.024.009c-1.233.445-2.248.629-3.1,1.007a3.787,3.787,0,0,0-2.005,1.794c-.529.965-.981,2.676-.847,5.586a4.285,4.285,0,0,0,1.241.587,23.4,23.4,0,0,0,6.525.679c5.351-.059,11.935-1.308,15.432-2.935a33.123,33.123,0,0,0,7.908-5.158h-.008c-11.682,2.415-18.283,1.769-22.334.1a11.016,11.016,0,0,1-2.785-1.677Zm-67.354.789h-.176c-.445.042-1.091.193-2.34,1.577-2.919,3.271-3.942,5.325-6.349,7.246s-5.535,2.935-11.783,4.219a16.1,16.1,0,0,0-3.867,1.207,2.183,2.183,0,0,0,.587.445,14,14,0,0,0,3.036,1.191,29.287,29.287,0,0,0,11.7.671,20.032,20.032,0,0,0,13.478-8.723,4.33,4.33,0,0,0,.2-4.017,6.224,6.224,0,0,0-2.776-3.3,5.475,5.475,0,0,0-1.711-.5Z" fill="#c9c9c9"/>
        </g>
      </g>
    </g>
  </g>
</svg>
