<svg xmlns="http://www.w3.org/2000/svg" xmlns:xlink="http://www.w3.org/1999/xlink" width="471.662" height="600.298" viewBox="0 0 471.662 600.298">
  <defs>
    <clipPath id="clip-path">
      <rect id="Rectangle_86" data-name="Rectangle 86" width="471.662" height="600.298" fill="none"/>
    </clipPath>
  </defs>
  <g id="Group_161" data-name="Group 161" transform="translate(4639 -1544)">
    <g id="Group_110" data-name="Group 110" transform="translate(-4639 1544)">
      <g id="Group_109" data-name="Group 109">
        <g id="Group_108" data-name="Group 108" clip-path="url(#clip-path)">
          <path id="Path_261" data-name="Path 261" d="M447.9,600.3H64.317A23.784,23.784,0,0,1,40.56,576.541V23.757A23.784,23.784,0,0,1,64.317,0H382.511l89.152,89.152V576.541A23.784,23.784,0,0,1,447.9,600.3" fill="#f5f5f5"/>
          <path id="Path_262" data-name="Path 262" d="M0,226.554,46.355,267.7l3.09-41.146Z" fill="#3d4fc1"/>
          <path id="Path_263" data-name="Path 263" d="M447.9,600.3H64.317A23.783,23.783,0,0,1,40.56,576.541V23.757A23.783,23.783,0,0,1,64.317,0H382.511l89.152,89.152V576.541A23.785,23.785,0,0,1,447.9,600.3M64.317,11.589A12.182,12.182,0,0,0,52.149,23.757V576.541a12.182,12.182,0,0,0,12.168,12.168H447.9a12.182,12.182,0,0,0,12.169-12.168V93.951L377.711,11.589Z" fill="#c9c9c9"/>
          <path id="Path_264" data-name="Path 264" d="M381.27,66.056A26.653,26.653,0,0,0,407.924,92.71h59.1L381.27,6.953Z" fill="#c9c9c9"/>
          <rect id="Rectangle_85" data-name="Rectangle 85" width="338.392" height="141.956" transform="translate(-0.001 84.598)" fill="#428ac5"/>
          <path id="Path_265" data-name="Path 265" d="M317.571,486.618h-123.9a31.463,31.463,0,0,1-31.464-31.463v-123.9a31.464,31.464,0,0,1,31.464-31.464h123.9a31.464,31.464,0,0,1,31.464,31.464v123.9a31.463,31.463,0,0,1-31.464,31.463" fill="#c9c9c9"/>
          <path id="Path_266" data-name="Path 266" d="M229.932,349.383H199.046v84.743h17.515v-26.09h13.371a29.327,29.327,0,0,0,0-58.653m0,42.5H216.561V365.533h13.371a13.177,13.177,0,0,1,0,26.354" fill="#fafbfc"/>
          <path id="Path_267" data-name="Path 267" d="M311.75,386.149V373.842a2.585,2.585,0,0,0-1.719-2.428c-12.457-4.487-31.495-3.576-38.714,7.819a18.134,18.134,0,0,0-2.235,13.481c1.366,6.432,5.83,10.753,12.038,13.887a38.862,38.862,0,0,0,4.6,1.938c5.01,1.767,9.935,4,11.508,6.8a3.359,3.359,0,0,1-1.042,4.31c-4.354,2.824-16.49,1.1-25.724-3.175a1.2,1.2,0,0,0-1.7,1.1v12.278a2.553,2.553,0,0,0,1.436,2.31c12.1,5.785,40.721,5.929,44.438-11.976,1.785-11.25-3.116-19.157-15.123-23.644-6.306-2.233-12.914-4.765-13.952-8.318a2.855,2.855,0,0,1,.51-2.524c3.384-4.383,16.489-2.38,23.915,1.52a1.2,1.2,0,0,0,1.765-1.067" fill="#fafbfc"/>
        </g>
      </g>
      <text id="PS" transform="translate(114.208 185.481)" fill="#fff" font-size="84.352" font-family="Arial-Black, Arial Black" font-weight="800"><tspan x="0" y="0">PS</tspan></text>
    </g>
  </g>
</svg>
