<svg id="Group_73" data-name="Group 73" xmlns="http://www.w3.org/2000/svg" xmlns:xlink="http://www.w3.org/1999/xlink" width="472.821" height="601.457" viewBox="0 0 472.821 601.457">
  <defs>
    <clipPath id="clip-path">
      <rect id="Rectangle_59" data-name="Rectangle 59" width="472.821" height="601.457" fill="none"/>
    </clipPath>
  </defs>
  <g id="Group_70" data-name="Group 70">
    <g id="Group_69" data-name="Group 69" clip-path="url(#clip-path)">
      <path id="Path_166" data-name="Path 166" d="M449.065,600.3H65.477A23.784,23.784,0,0,1,41.72,576.541V23.757A23.784,23.784,0,0,1,65.477,0H383.67l89.152,89.151v487.39A23.783,23.783,0,0,1,449.065,600.3" fill="#f5f5f5"/>
      <path id="Path_167" data-name="Path 167" d="M0,227.713l46.355,41.146,3.09-41.146Z" fill="#c32120"/>
      <path id="Path_168" data-name="Path 168" d="M447.9,601.457H64.317A23.783,23.783,0,0,1,40.56,577.7V24.916A23.784,23.784,0,0,1,64.317,1.159H382.511L471.662,90.31V577.7A23.784,23.784,0,0,1,447.9,601.457M64.317,12.748A12.182,12.182,0,0,0,52.149,24.916V577.7a12.182,12.182,0,0,0,12.168,12.168H447.9A12.181,12.181,0,0,0,460.073,577.7V95.111L377.711,12.748Z" fill="#c9c9c9"/>
      <path id="Path_169" data-name="Path 169" d="M381.27,67.215a26.654,26.654,0,0,0,26.654,26.654h59.1L381.27,8.112Z" fill="#c9c9c9"/>
      <rect id="Rectangle_58" data-name="Rectangle 58" width="338.392" height="141.956" transform="translate(0 85.757)" fill="#f0544a"/>
    </g>
  </g>
  <text id="RAILS" transform="translate(34.928 188.683)" fill="#fff" font-size="84.352" font-family="Arial-Black, Arial Black" font-weight="800"><tspan x="0" y="0">RAILS</tspan></text>
  <g id="Group_72" data-name="Group 72">
    <g id="Group_71" data-name="Group 71" clip-path="url(#clip-path)">
      <path id="Path_170" data-name="Path 170" d="M352.1,335.189v6.882l12.764,1.877v-5.294Z" fill="#c9c9c9"/>
      <path id="Path_171" data-name="Path 171" d="M353.752,304.89l12.409,6.183,4.081-3.987-15.459-10.873Z" fill="#c9c9c9"/>
      <path id="Path_172" data-name="Path 172" d="M304.763,287.019l20.473,1.174,1.234,12.442-19.416-1.879Z" fill="#c9c9c9"/>
      <path id="Path_173" data-name="Path 173" d="M258.188,290l10.147,12.953L252.2,311.264l-9.911-14.092Z" fill="#c9c9c9"/>
      <path id="Path_174" data-name="Path 174" d="M198.778,324.182l15.884,10.942L202.307,349.6l-16.944-11.649Z" fill="#c9c9c9"/>
      <path id="Path_175" data-name="Path 175" d="M177.775,393.9l-6.18,16.767-21.882-6L156.6,384.9Z" fill="#c9c9c9"/>
      <path id="Path_176" data-name="Path 176" d="M135.592,468.489l20.366.564-3.07,22.814-21.245-.512Z" fill="#c9c9c9"/>
      <path id="Path_177" data-name="Path 177" d="M270.345,479.5l3.631,15.708,23.61,2.3L289,479.5Z" fill="#c9c9c9"/>
      <path id="Path_178" data-name="Path 178" d="M262.757,442.434l18.709,8.824-.884-15.177-16.765-9.531Z" fill="#c9c9c9"/>
      <path id="Path_179" data-name="Path 179" d="M269.138,397.252l4.65-11.3,13.59,9.709-2.823,15Z" fill="#c9c9c9"/>
      <path id="Path_180" data-name="Path 180" d="M288.787,360.894l11.121-7.236,8.825,12.883-7.238,9.707Z" fill="#c9c9c9"/>
      <path id="Path_181" data-name="Path 181" d="M318.97,340.772l4.941,10.591,8.825-7.059-.882-5.827Z" fill="#c9c9c9"/>
      <path id="Path_182" data-name="Path 182" d="M193.574,377.44c-40.865,76.707-31.067,146.845-31.067,146.845l113.062.163c-3.563-20.726-32.9-80.3-11.79-136.137,30.172-79.8,100.193-55.408,110.2-51.648l4.235-12.7c-21-23.081-135.2-39.324-184.637,53.482" fill="#c9c9c9"/>
    </g>
  </g>
</svg>
