<svg id="Group_57" data-name="Group 57" xmlns="http://www.w3.org/2000/svg" xmlns:xlink="http://www.w3.org/1999/xlink" width="472.821" height="601.457" viewBox="0 0 472.821 601.457">
  <defs>
    <clipPath id="clip-path">
      <rect id="Rectangle_42" data-name="Rectangle 42" width="472.821" height="601.457" fill="none"/>
    </clipPath>
  </defs>
  <g id="Group_54" data-name="Group 54">
    <g id="Group_53" data-name="Group 53" clip-path="url(#clip-path)">
      <path id="Path_95" data-name="Path 95" d="M449.065,600.3H65.477A23.784,23.784,0,0,1,41.72,576.541V23.757A23.784,23.784,0,0,1,65.477,0H383.67l89.152,89.151v487.39A23.783,23.783,0,0,1,449.065,600.3" fill="#f5f5f5"/>
      <path id="Path_96" data-name="Path 96" d="M0,227.713l46.355,41.146,3.09-41.146Z" fill="#c32120"/>
      <path id="Path_97" data-name="Path 97" d="M447.9,601.457H64.317A23.783,23.783,0,0,1,40.56,577.7V24.916A23.784,23.784,0,0,1,64.317,1.159H382.511L471.662,90.31V577.7A23.784,23.784,0,0,1,447.9,601.457M64.317,12.748A12.182,12.182,0,0,0,52.149,24.916V577.7a12.182,12.182,0,0,0,12.168,12.168H447.9A12.181,12.181,0,0,0,460.073,577.7V95.111L377.711,12.748Z" fill="#c9c9c9"/>
      <path id="Path_98" data-name="Path 98" d="M381.27,67.215a26.654,26.654,0,0,0,26.654,26.654h59.1L381.27,8.112Z" fill="#c9c9c9"/>
      <rect id="Rectangle_41" data-name="Rectangle 41" width="338.392" height="141.956" transform="translate(0 85.757)" fill="#f0544a"/>
    </g>
  </g>
  <text id="RUBY" transform="translate(52.928 187.683)" fill="#fff" font-size="84.352" font-family="Arial-Black, Arial Black" font-weight="800"><tspan x="0" y="0" letter-spacing="-0.017em">R</tspan><tspan y="0">UBY</tspan></text>
  <g id="Group_56" data-name="Group 56">
    <g id="Group_55" data-name="Group 55" clip-path="url(#clip-path)">
      <path id="Path_99" data-name="Path 99" d="M263.943,507.283,379.091,379.36H311.7Z" fill="#c9c9c9"/>
      <path id="Path_100" data-name="Path 100" d="M178.449,311.561l-42.765,60.983h65.531Z" fill="#c9c9c9"/>
      <path id="Path_101" data-name="Path 101" d="M379.77,372.544,337,311.561l-22.766,60.983Z" fill="#c9c9c9"/>
      <path id="Path_102" data-name="Path 102" d="M136.363,379.36,251.511,507.283,203.76,379.36Z" fill="#c9c9c9"/>
      <path id="Path_103" data-name="Path 103" d="M253.342,308.175h-68.88L206.2,366.4Z" fill="#c9c9c9"/>
      <path id="Path_104" data-name="Path 104" d="M305.463,372.544l-47.736-58.953-47.736,58.953Z" fill="#c9c9c9"/>
      <path id="Path_105" data-name="Path 105" d="M211.035,379.36l46.692,125.083L304.419,379.36Z" fill="#c9c9c9"/>
      <path id="Path_106" data-name="Path 106" d="M330.993,308.175H262.112L309.258,366.4Z" fill="#c9c9c9"/>
    </g>
  </g>
</svg>
