<svg xmlns="http://www.w3.org/2000/svg" xmlns:xlink="http://www.w3.org/1999/xlink" width="471.662" height="601.457" viewBox="0 0 471.662 601.457">
  <defs>
    <clipPath id="clip-path">
      <rect id="Rectangle_79" data-name="Rectangle 79" width="471.662" height="601.457" fill="none"/>
    </clipPath>
  </defs>
  <g id="Group_155" data-name="Group 155" transform="translate(3018 -2606)">
    <g id="Group_102" data-name="Group 102" transform="translate(-3018 2606)">
      <g id="Group_99" data-name="Group 99">
        <g id="Group_98" data-name="Group 98" clip-path="url(#clip-path)">
          <path id="Path_236" data-name="Path 236" d="M446.747,600.3H63.159A23.784,23.784,0,0,1,39.4,576.541V23.757A23.784,23.784,0,0,1,63.159,0H381.353L470.5,89.151v487.39A23.783,23.783,0,0,1,446.747,600.3" fill="#f5f5f5"/>
          <path id="Path_237" data-name="Path 237" d="M0,227.713l46.355,41.146,3.09-41.146Z" fill="#6d4107"/>
          <path id="Path_238" data-name="Path 238" d="M447.906,601.457H64.318A23.783,23.783,0,0,1,40.561,577.7V24.916A23.784,23.784,0,0,1,64.318,1.159H382.512L471.663,90.31V577.7a23.784,23.784,0,0,1-23.757,23.757M64.318,12.748A12.182,12.182,0,0,0,52.15,24.916V577.7a12.182,12.182,0,0,0,12.168,12.168H447.906A12.181,12.181,0,0,0,460.074,577.7V95.111L377.712,12.748Z" fill="#c9c9c9"/>
          <path id="Path_239" data-name="Path 239" d="M381.27,67.215a26.654,26.654,0,0,0,26.654,26.654h59.1L381.27,8.112Z" fill="#c9c9c9"/>
          <rect id="Rectangle_78" data-name="Rectangle 78" width="338.392" height="141.956" transform="translate(0 85.757)" fill="#b2985f"/>
        </g>
      </g>
      <text id="STIMULUS" transform="translate(15.9 175.06)" fill="#fff" font-size="53.44" font-family="Arial-Black, Arial Black" font-weight="800"><tspan x="0" y="0">STIMU</tspan><tspan y="0" letter-spacing="-0.025em">L</tspan><tspan y="0">US</tspan></text>
      <g id="Group_101" data-name="Group 101">
        <g id="Group_100" data-name="Group 100" clip-path="url(#clip-path)">
          <path id="Path_240" data-name="Path 240" d="M302.024,415.166H291.917a19.632,19.632,0,0,0-8.469,2.322l-69.568,40.93a19.632,19.632,0,0,1-8.468,2.322H168.989v18.212a4.566,4.566,0,0,0,4.553,4.552H319.234a4.566,4.566,0,0,0,4.553-4.552V460.74H287.363a19.632,19.632,0,0,1-8.468-2.322l-20.852-12.247c-2.14-1.275-2.14-3.369,0-4.6l9.925-5.828a8.494,8.494,0,0,1,7.831,0l7.649,4.507a19.632,19.632,0,0,0,8.469,2.322h31.87V415.257H302.024Z" fill="#c9c9c9"/>
          <path id="Path_241" data-name="Path 241" d="M302.024,369.637H291.917a19.632,19.632,0,0,0-8.469,2.322l-69.568,40.93a19.632,19.632,0,0,1-8.468,2.322H168.989v27.318h31.87a19.629,19.629,0,0,0,8.468-2.323l69.568-40.93a19.632,19.632,0,0,1,8.468-2.322h36.424V369.637H302.024Z" fill="#c9c9c9"/>
          <path id="Path_242" data-name="Path 242" d="M319.234,328.661H173.542a4.567,4.567,0,0,0-4.553,4.553v18.212h36.423a19.644,19.644,0,0,1,8.468,2.321l20.853,12.247c2.139,1.275,2.139,3.37,0,4.6l-9.926,5.828a8.494,8.494,0,0,1-7.831,0l-7.649-4.508a19.641,19.641,0,0,0-8.468-2.321h-31.87v27.317h31.87a19.628,19.628,0,0,0,8.468-2.322l69.568-40.93a19.633,19.633,0,0,1,8.468-2.323h36.424V333.123a4.548,4.548,0,0,0-4.553-4.462" fill="#c9c9c9"/>
        </g>
      </g>
    </g>
  </g>
</svg>
