<svg xmlns="http://www.w3.org/2000/svg" xmlns:xlink="http://www.w3.org/1999/xlink" width="471.662" height="601.457" viewBox="0 0 471.662 601.457">
  <defs>
    <clipPath id="clip-path">
      <rect id="Rectangle_74" data-name="Rectangle 74" width="471.662" height="601.457" fill="none"/>
    </clipPath>
  </defs>
  <g id="Group_154" data-name="Group 154" transform="translate(3610 -2606)">
    <g id="Group_112" data-name="Group 112">
      <g id="Group_91" data-name="Group 91" transform="translate(-3610 2606)">
        <g id="Group_90" data-name="Group 90" clip-path="url(#clip-path)">
          <path id="Path_225" data-name="Path 225" d="M446.747,600.3H63.159A23.784,23.784,0,0,1,39.4,576.541V23.757A23.784,23.784,0,0,1,63.159,0H381.353L470.5,89.151v487.39A23.783,23.783,0,0,1,446.747,600.3" fill="#f5f5f5"/>
          <path id="Path_226" data-name="Path 226" d="M0,227.713l46.355,41.146,3.09-41.146Z" fill="#197f4a"/>
          <path id="Path_227" data-name="Path 227" d="M447.906,601.457H64.318A23.783,23.783,0,0,1,40.561,577.7V24.916A23.784,23.784,0,0,1,64.318,1.159H382.512L471.663,90.31V577.7a23.784,23.784,0,0,1-23.757,23.757M64.318,12.748A12.182,12.182,0,0,0,52.15,24.916V577.7a12.182,12.182,0,0,0,12.168,12.168H447.906A12.181,12.181,0,0,0,460.074,577.7V95.111L377.712,12.748Z" fill="#c9c9c9"/>
          <path id="Path_228" data-name="Path 228" d="M381.27,67.215a26.654,26.654,0,0,0,26.654,26.654h59.1L381.27,8.112Z" fill="#c9c9c9"/>
          <rect id="Rectangle_73" data-name="Rectangle 73" width="338.392" height="141.956" transform="translate(0 85.757)" fill="#40b17e"/>
          <path id="Path_229" data-name="Path 229" d="M351.65,339.572l-39.189-.087L256.334,443.739l-55.666-104.5-39.19-.087a.4.4,0,0,0-.383.644s94.924,173.7,95.035,173.716a.6.6,0,0,0,.049-.078c.027.047.045.078.046.078.113-.019,95.806-173.293,95.806-173.293a.4.4,0,0,0-.381-.645" fill="#c9c9c9"/>
          <path id="Path_230" data-name="Path 230" d="M278.808,339.409l-22.335,41.017L234.321,339.31l-33.654-.074,55.666,104.5L312.46,339.484Z" fill="#bfbfbf"/>
        </g>
      </g>
      <text id="VUE_" data-name="VUE " transform="translate(-3530.1 2792.582)" fill="#fff" font-size="84.352" font-family="Arial-Black, Arial Black" font-weight="800"><tspan x="0" y="0">VUE </tspan></text>
    </g>
  </g>
</svg>
