<svg xmlns="http://www.w3.org/2000/svg" xmlns:xlink="http://www.w3.org/1999/xlink" width="471.662" height="600.298" viewBox="0 0 471.662 600.298">
  <defs>
    <clipPath id="clip-path">
      <rect id="Rectangle_84" data-name="Rectangle 84" width="471.662" height="600.298" transform="translate(0 1)" fill="none"/>
    </clipPath>
  </defs>
  <g id="Group_159" data-name="Group 159" transform="translate(3490 -1545)">
    <g id="Group_107" data-name="Group 107" transform="translate(-3490 1544)">
      <g id="Group_106" data-name="Group 106">
        <g id="Group_105" data-name="Group 105" clip-path="url(#clip-path)">
          <path id="Path_253" data-name="Path 253" d="M447.9,600.3H64.317A23.784,23.784,0,0,1,40.56,576.541V23.757A23.784,23.784,0,0,1,64.317,0H382.511l89.152,89.152V576.541A23.784,23.784,0,0,1,447.9,600.3" fill="#f5f5f5"/>
          <path id="Path_254" data-name="Path 254" d="M0,226.554,46.355,267.7l3.09-41.146Z" fill="#712577"/>
          <path id="Path_255" data-name="Path 255" d="M447.9,600.3H64.317A23.783,23.783,0,0,1,40.56,576.541V23.757A23.783,23.783,0,0,1,64.317,0H382.511l89.152,89.152V576.541A23.785,23.785,0,0,1,447.9,600.3M64.317,11.589A12.182,12.182,0,0,0,52.149,23.757V576.541a12.182,12.182,0,0,0,12.168,12.168H447.9a12.182,12.182,0,0,0,12.169-12.168V93.951L377.711,11.589Z" fill="#c9c9c9"/>
          <path id="Path_256" data-name="Path 256" d="M381.27,66.056A26.653,26.653,0,0,0,407.924,92.71h59.1L381.27,6.953Z" fill="#c9c9c9"/>
          <path id="Path_260" data-name="Path 260" d="M0,0H338.392V141.956H0Z" transform="translate(-0.001 84.598)" fill="#96309a"/>
          <path id="Path_257" data-name="Path 257" d="M346.141,464.049a31.463,31.463,0,0,1-31.464,31.463H190.78a31.462,31.462,0,0,1-31.463-31.463v-123.9a31.462,31.462,0,0,1,31.463-31.463h123.9a31.463,31.463,0,0,1,31.464,31.463" transform="translate(0 -8)" fill="#c9c9c9"/>
          <path id="Path_258" data-name="Path 258" d="M209.791,403.506l-24.024,39.2a1.1,1.1,0,0,0,.941,1.68h16.459a2.319,2.319,0,0,0,2.05-1.238L220.856,413.5l16.1,29.681a2.319,2.319,0,0,0,2.037,1.213h18.28a1.1,1.1,0,0,0,.929-1.7L233,403.215l23.44-39.23a1.1,1.1,0,0,0-.947-1.669H239.636a2.321,2.321,0,0,0-2.06,1.252l-15.566,30.1-15.568-30.1a2.316,2.316,0,0,0-2.058-1.252H186.7a1.1,1.1,0,0,0-.942,1.675Z" transform="translate(0 -8)" fill="#fcfcfc"/>
          <path id="Path_259" data-name="Path 259" d="M316.845,355.409H301.057a.759.759,0,0,0-.76.759V381c-25.26-1.873-39.882,12.127-40.353,33.57.523,29.744,28.809,37.11,57.661,25.963V356.168a.759.759,0,0,0-.76-.759m-38.578,61.647a21.017,21.017,0,0,1,.087-8.566c2.165-9.437,10.35-14.306,21.943-12.8V429.9c-12.47,1.691-20.088-2.5-22.03-12.84" transform="translate(0 -8)" fill="#fcfcfc"/>
        </g>
      </g>
      <text id="XD" transform="translate(112.416 185.736)" fill="#fff" font-size="84.352" font-family="Arial-Black, Arial Black" font-weight="800"><tspan x="0" y="0">XD</tspan></text>
    </g>
  </g>
</svg>
