<svg id="Group_22" data-name="Group 22" xmlns="http://www.w3.org/2000/svg" xmlns:xlink="http://www.w3.org/1999/xlink" width="46.79" height="46.79" viewBox="0 0 46.79 46.79">
  <defs>
    <clipPath id="clip-path">
      <rect id="Rectangle_31" data-name="Rectangle 31" width="46.79" height="46.79" fill="none"/>
    </clipPath>
  </defs>
  <g id="Group_21" data-name="Group 21" transform="translate(0 0)" clip-path="url(#clip-path)">
    <path id="Path_70" data-name="Path 70" d="M23.4,46.79a23.395,23.395,0,1,1,23.394-23.4A23.422,23.422,0,0,1,23.4,46.79" transform="translate(0 0)" fill="#3c5a99"/>
    <path id="Path_71" data-name="Path 71" d="M22.535,25.066V38.625a.353.353,0,0,0,.353.353h5.035a.353.353,0,0,0,.353-.353V24.845h3.651a.353.353,0,0,0,.351-.323l.351-4.152a.353.353,0,0,0-.351-.383h-4V17.041a1.25,1.25,0,0,1,1.25-1.25h2.813a.354.354,0,0,0,.354-.353V11.286a.353.353,0,0,0-.354-.353H27.586a5.052,5.052,0,0,0-5.051,5.051v4H20.016a.354.354,0,0,0-.353.353v4.152a.353.353,0,0,0,.353.353h2.518Z" transform="translate(-2.808 -1.561)" fill="#fff" fill-rule="evenodd"/>
  </g>
</svg>
