<svg id="Group_45" data-name="Group 45" xmlns="http://www.w3.org/2000/svg" xmlns:xlink="http://www.w3.org/1999/xlink" width="44.54" height="43.54" viewBox="0 0 44.54 43.54">
  <defs>
    <clipPath id="clip-path">
      <rect id="Rectangle_20" data-name="Rectangle 20" width="44.54" height="43.54" fill="#4b4b4b"/>
    </clipPath>
  </defs>
  <g id="Group_15" data-name="Group 15" transform="translate(0 0)" clip-path="url(#clip-path)">
    <path id="Path_64" data-name="Path 64" d="M22.27,43.54C9.99,43.54,0,33.774,0,21.77S9.99,0,22.27,0,44.54,9.767,44.54,21.77,34.55,43.54,22.27,43.54m0-41.2A19.68,19.68,0,0,0,2.392,21.77,19.68,19.68,0,0,0,22.27,41.2,19.68,19.68,0,0,0,42.148,21.77,19.68,19.68,0,0,0,22.27,2.339" transform="translate(0 0)" fill="#4b4b4b"/>
    <path id="Path_65" data-name="Path 65" d="M22.4,24.085V36.7a.333.333,0,0,0,.336.329h4.793a.332.332,0,0,0,.336-.329V23.879h3.474a.332.332,0,0,0,.335-.3l.334-3.864a.331.331,0,0,0-.335-.356H27.862V16.617a1.177,1.177,0,0,1,1.19-1.163H31.73a.333.333,0,0,0,.337-.329V11.262a.333.333,0,0,0-.337-.329H27.205a4.755,4.755,0,0,0-4.809,4.7v3.725H20a.333.333,0,0,0-.336.329v3.864a.332.332,0,0,0,.336.328h2.4Z" transform="translate(-3.618 -2.212)" fill="#4b4b4b" fill-rule="evenodd"/>
  </g>
</svg>
