<svg id="Group_46" data-name="Group 46" xmlns="http://www.w3.org/2000/svg" xmlns:xlink="http://www.w3.org/1999/xlink" width="44.25" height="42.25" viewBox="0 0 44.25 42.25">
  <defs>
    <clipPath id="clip-path">
      <rect id="Rectangle_21" data-name="Rectangle 21" width="44.25" height="42.25" fill="#fff"/>
    </clipPath>
  </defs>
  <g id="Group_17" data-name="Group 17" transform="translate(0 0)" clip-path="url(#clip-path)">
    <path id="Path_66" data-name="Path 66" d="M22.124,42.25C9.925,42.25,0,32.773,0,21.125S9.925,0,22.124,0,44.249,9.477,44.249,21.125,34.323,42.25,22.124,42.25m0-40.243C11.083,2.007,2.1,10.583,2.1,21.125s8.982,19.117,20.023,19.117,20.022-8.576,20.022-19.117S33.165,2.007,22.124,2.007m7.46,10.547a1.565,1.565,0,1,0,1.637,1.563,1.6,1.6,0,0,0-1.637-1.563m-7.279,2a6.735,6.735,0,0,0-6.878,6.567,6.735,6.735,0,0,0,6.878,6.566,6.735,6.735,0,0,0,6.877-6.566,6.735,6.735,0,0,0-6.877-6.567m0,10.773A4.314,4.314,0,0,1,17.9,21.125a4.41,4.41,0,0,1,8.811,0,4.313,4.313,0,0,1-4.4,4.206m13.877-9.663a8.205,8.205,0,0,0-8.389-8.009H16.723a8.2,8.2,0,0,0-8.388,8.009V26.239a8.205,8.205,0,0,0,8.388,8.009h11.07a8.206,8.206,0,0,0,8.389-8.009ZM33.555,26.239a5.635,5.635,0,0,1-5.762,5.5H16.723a5.635,5.635,0,0,1-5.761-5.5V15.668a5.635,5.635,0,0,1,5.761-5.5h11.07a5.635,5.635,0,0,1,5.762,5.5Z" transform="translate(0 0)" fill="#fff"/>
  </g>
</svg>
