<svg id="Group_46" data-name="Group 46" xmlns="http://www.w3.org/2000/svg" xmlns:xlink="http://www.w3.org/1999/xlink" width="44.25" height="43.25" viewBox="0 0 44.25 43.25">
  <defs>
    <clipPath id="clip-path">
      <rect id="Rectangle_21" data-name="Rectangle 21" width="44.25" height="43.25" fill="#4b4b4b"/>
    </clipPath>
  </defs>
  <g id="Group_17" data-name="Group 17" transform="translate(0 0)" clip-path="url(#clip-path)">
    <path id="Path_66" data-name="Path 66" d="M22.124,43.25C9.925,43.25,0,33.548,0,21.625S9.925,0,22.124,0,44.249,9.7,44.249,21.625,34.323,43.25,22.124,43.25m0-41.2A19.823,19.823,0,0,0,2.1,21.625,19.823,19.823,0,0,0,22.124,41.2a19.823,19.823,0,0,0,20.022-19.57A19.823,19.823,0,0,0,22.124,2.054m7.46,10.8a1.6,1.6,0,1,0,1.637,1.6,1.619,1.619,0,0,0-1.637-1.6M22.306,14.9a6.724,6.724,0,1,0,6.877,6.722A6.809,6.809,0,0,0,22.306,14.9m0,11.028a4.307,4.307,0,1,1,4.4-4.305,4.361,4.361,0,0,1-4.4,4.305m13.877-9.892a8.3,8.3,0,0,0-8.389-8.2H16.723a8.3,8.3,0,0,0-8.388,8.2V26.86a8.3,8.3,0,0,0,8.388,8.2h11.07a8.3,8.3,0,0,0,8.389-8.2ZM33.555,26.86a5.7,5.7,0,0,1-5.762,5.631H16.723a5.7,5.7,0,0,1-5.761-5.631V16.038a5.7,5.7,0,0,1,5.761-5.631h11.07a5.7,5.7,0,0,1,5.762,5.631Z" transform="translate(0 0)" fill="#4b4b4b"/>
  </g>
</svg>
