<svg id="Group_47" data-name="Group 47" xmlns="http://www.w3.org/2000/svg" xmlns:xlink="http://www.w3.org/1999/xlink" width="44.465" height="43.464" viewBox="0 0 44.465 43.464">
  <defs>
    <clipPath id="clip-path">
      <rect id="Rectangle_22" data-name="Rectangle 22" width="44.465" height="43.464" fill="#4b4b4b"/>
    </clipPath>
  </defs>
  <g id="Group_19" data-name="Group 19" transform="translate(0 0)" clip-path="url(#clip-path)">
    <path id="Path_67" data-name="Path 67" d="M22.233,43.465C9.974,43.465,0,33.716,0,21.732S9.974,0,22.233,0,44.465,9.749,44.465,21.732,34.491,43.465,22.233,43.465m0-41.126A19.643,19.643,0,0,0,2.392,21.732a19.643,19.643,0,0,0,19.84,19.393A19.642,19.642,0,0,0,42.072,21.732,19.642,19.642,0,0,0,22.233,2.339" transform="translate(0 0)" fill="#4b4b4b"/>
    <path id="Path_68" data-name="Path 68" d="M37.429,27.634v8.114a.367.367,0,0,1-.371.363H32.772a.367.367,0,0,1-.371-.363V28.2c0-1.985-.727-3.341-2.547-3.341a2.745,2.745,0,0,0-2.58,1.8,3.3,3.3,0,0,0-.166,1.2v7.893a.368.368,0,0,1-.371.364H22.452a.367.367,0,0,1-.371-.364c.01-2.009.053-11.76.009-14.052a.365.365,0,0,1,.371-.368h4.276a.367.367,0,0,1,.371.363v1.732c-.01.017-.024.033-.033.049h.033v-.049a5.012,5.012,0,0,1,4.532-2.442c3.308,0,5.789,2.113,5.789,6.653M14.643,36.111h4.285a.367.367,0,0,0,.371-.363V21.691a.367.367,0,0,0-.371-.363H14.643a.367.367,0,0,0-.371.363V35.748a.367.367,0,0,0,.371.363" transform="translate(-2.626 -4.246)" fill="#4b4b4b"/>
    <path id="Path_69" data-name="Path 69" d="M19.252,15.092a2.692,2.692,0,1,1-2.691-2.631,2.661,2.661,0,0,1,2.691,2.631" transform="translate(-2.552 -2.522)" fill="#4b4b4b"/>
  </g>
</svg>
