<svg id="Group_24" data-name="Group 24" xmlns="http://www.w3.org/2000/svg" xmlns:xlink="http://www.w3.org/1999/xlink" width="46.711" height="46.71" viewBox="0 0 46.711 46.71">
  <defs>
    <clipPath id="clip-path">
      <rect id="Rectangle_32" data-name="Rectangle 32" width="46.711" height="46.71" fill="none"/>
    </clipPath>
  </defs>
  <g id="Group_23" data-name="Group 23" transform="translate(0 0)" clip-path="url(#clip-path)">
    <path id="Path_72" data-name="Path 72" d="M23.356,46.711A23.355,23.355,0,1,1,46.711,23.356,23.382,23.382,0,0,1,23.356,46.711" transform="translate(0 -0.001)" fill="#007ab9"/>
    <path id="Path_73" data-name="Path 73" d="M38.6,28.13v8.721a.39.39,0,0,1-.39.39h-4.5a.39.39,0,0,1-.39-.39v-8.11c0-2.134-.763-3.592-2.675-3.592a2.889,2.889,0,0,0-2.71,1.93,3.6,3.6,0,0,0-.176,1.287V36.85a.389.389,0,0,1-.39.39h-4.5a.388.388,0,0,1-.39-.39c.01-2.16.056-12.638.009-15.1a.388.388,0,0,1,.39-.4h4.492a.39.39,0,0,1,.39.39V23.6c-.01.018-.026.035-.035.052h.035V23.6a5.246,5.246,0,0,1,4.761-2.625c3.475,0,6.081,2.272,6.081,7.15M14.662,37.241h4.5a.39.39,0,0,0,.39-.39V21.744a.39.39,0,0,0-.39-.39h-4.5a.39.39,0,0,0-.39.39V36.851a.39.39,0,0,0,.39.39" transform="translate(-2.038 -2.997)" fill="#fff"/>
    <path id="Path_74" data-name="Path 74" d="M19.524,15.288A2.827,2.827,0,1,1,16.7,12.461a2.828,2.828,0,0,1,2.827,2.827" transform="translate(-1.981 -1.78)" fill="#fff"/>
  </g>
</svg>
