<svg id="Layer_1" data-name="Layer 1" xmlns="http://www.w3.org/2000/svg" viewBox="0 0 38.15 38.15"><defs><style>.cls-1{fill:#fff;}.cls-2{fill:#3ca8e0;}</style></defs><rect class="cls-1" x="6.26" y="7.38" width="26.65" height="23.72"/><path class="cls-2" d="M20.07,1A19.08,19.08,0,1,0,39.15,20.07,19.07,19.07,0,0,0,20.07,1Zm9.56,14.17c0,.21,0,.43,0,.64A14,14,0,0,1,8.06,27.62a9.08,9.08,0,0,0,1.17.07,9.93,9.93,0,0,0,6.13-2.11,4.94,4.94,0,0,1-4.61-3.42,5.64,5.64,0,0,0,.93.09,4.69,4.69,0,0,0,1.3-.18,4.93,4.93,0,0,1-4-4.83v-.06a4.87,4.87,0,0,0,2.24.61,4.91,4.91,0,0,1-2.2-4.1,5,5,0,0,1,.67-2.48,14,14,0,0,0,10.16,5.15,5.2,5.2,0,0,1-.13-1.12,4.94,4.94,0,0,1,8.53-3.38,10,10,0,0,0,3.14-1.19,5,5,0,0,1-2.17,2.73,10.07,10.07,0,0,0,2.83-.78A9.94,9.94,0,0,1,29.63,15.17Z" transform="translate(-1 -1)"/></svg>